<svg version="1.1" id="Layer_1" xmlns="http://www.w3.org/2000/svg" xmlns:xlink="http://www.w3.org/1999/xlink" x="0px" y="0px"
	 width="100%" viewBox="0 0 902 608" enable-background="new 0 0 902 608" xml:space="preserve">
<path fill="#FEFEFE" opacity="1.000000" stroke="none" 
	d="
M579.000000,609.000000 
	C386.000000,609.000000 193.500000,609.000000 1.000000,609.000000 
	C1.000000,406.333344 1.000000,203.666672 1.000000,1.000000 
	C301.666656,1.000000 602.333313,1.000000 903.000000,1.000000 
	C903.000000,203.666672 903.000000,406.333344 903.000000,609.000000 
	C795.166687,609.000000 687.333313,609.000000 579.000000,609.000000 
M676.596802,164.511200 
	C672.737305,162.209244 668.929810,159.813995 665.004822,157.629684 
	C660.418518,155.077316 655.729797,152.708984 651.088867,149.291458 
	C651.066101,144.981522 650.887634,140.664902 651.072571,136.363907 
	C651.206970,133.238434 650.322327,131.874084 646.922668,131.970993 
	C638.475281,132.211777 630.018982,132.138748 621.042603,131.806747 
	C616.537048,129.022461 612.105286,126.104477 607.474182,123.547585 
	C606.311035,122.905411 604.219666,122.878319 603.049683,123.499931 
	C598.079712,126.140503 593.295837,129.131302 587.577026,131.952194 
	C578.581848,131.978378 569.580444,132.212906 560.594177,131.942947 
	C556.095947,131.807816 554.685303,133.487122 554.969482,137.768097 
	C555.255676,142.079987 555.033569,146.425629 554.350830,151.004196 
	C546.836731,155.234009 539.293457,159.413620 531.841431,163.750076 
	C530.778259,164.368744 530.157166,165.746964 529.009644,167.691711 
	C528.974854,199.268600 528.917908,230.845566 528.994995,262.422180 
	C528.997742,263.551636 530.323792,264.677917 531.959717,265.918579 
	C578.942627,265.927216 625.925659,265.954987 672.908325,265.862671 
	C674.497253,265.859528 676.083862,264.647308 677.952454,263.248016 
	C677.920593,231.505905 677.888733,199.763809 678.043152,167.327667 
	C677.735168,166.536850 677.427185,165.746048 676.596802,164.511200 
M127.807304,500.384552 
	C132.182144,485.461823 136.556961,470.539093 140.893082,455.748444 
	C141.380783,456.775330 142.291306,458.143768 142.703415,459.648682 
	C145.512909,469.908722 147.975723,480.269562 151.015686,490.459106 
	C155.052048,503.988525 158.864426,517.642395 163.955856,530.784607 
	C170.197525,546.895813 190.253586,549.332397 200.615005,535.508057 
	C203.727371,531.355408 206.050293,526.280396 207.502045,521.270630 
	C214.163544,498.283081 220.619705,475.228729 226.602203,452.057037 
	C228.046951,446.461182 230.074310,444.099518 236.034546,444.103058 
	C243.221588,444.107330 245.459366,441.322113 245.830688,434.314850 
	C246.247726,426.445282 243.391541,421.406708 236.759735,421.236511 
	C223.308014,420.891266 209.809311,421.168274 196.373154,421.940247 
	C189.765289,422.319946 187.281326,425.314880 186.849030,430.200043 
	C186.370941,435.602631 189.220062,440.111359 194.872375,442.022095 
	C198.297791,443.179993 201.949951,443.667145 205.279236,444.406586 
	C198.338562,468.742737 191.332077,493.309570 184.325607,517.876465 
	C179.514084,504.229309 176.034805,490.877380 171.988846,477.699463 
	C167.994019,464.688080 163.732376,451.739197 159.004227,438.979126 
	C155.746094,430.186310 148.878357,426.346893 139.329803,426.889954 
	C130.472565,427.393677 125.860130,432.789093 123.083565,440.213928 
	C120.117294,448.146179 117.535751,456.231567 115.037308,464.327576 
	C109.367729,482.699341 103.852211,501.118652 98.360657,519.232971 
	C91.166878,494.408447 83.900070,469.331970 76.791466,444.801422 
	C80.798248,443.793488 84.805443,443.278168 88.387650,441.760071 
	C92.907372,439.844635 94.736397,434.765137 93.999214,428.972137 
	C93.455925,424.702759 90.319984,422.892731 86.843498,422.366364 
	C71.096466,419.982269 55.277199,420.047424 39.597687,422.786713 
	C32.857594,423.964203 30.840219,427.104584 31.086918,433.061493 
	C31.328863,438.903656 34.853542,442.928009 40.831593,443.934143 
	C43.286575,444.347321 45.847794,444.815247 48.276661,444.533630 
	C51.745903,444.131378 52.898418,445.682434 53.719692,448.704071 
	C55.986099,457.042694 58.501617,465.314606 60.981716,473.593994 
	C66.608185,492.376892 72.127838,511.193939 78.003471,529.898926 
	C79.940689,536.066040 83.445160,541.312256 90.374695,543.160217 
	C102.993843,546.525574 115.290253,539.633667 119.722206,526.376587 
	C122.513771,518.026306 124.944504,509.555359 127.807304,500.384552 
M600.685059,540.003418 
	C611.014526,539.969666 621.349060,540.110596 631.670776,539.810364 
	C635.444580,539.700500 639.294617,538.890991 642.918701,537.778137 
	C647.724121,536.302612 649.792786,532.346924 649.469604,526.698547 
	C649.184143,521.708862 646.730225,518.595825 641.684570,517.858643 
	C637.943359,517.311951 634.178711,516.925354 629.884583,516.401550 
	C629.884583,514.658203 629.901917,512.878174 629.881958,511.098572 
	C629.586548,484.779572 629.346252,458.459686 628.956177,432.142059 
	C628.810608,422.317932 624.529663,418.355225 614.732544,419.688751 
	C589.175171,423.167419 563.512573,421.867615 537.876099,421.932281 
	C536.277100,421.936340 534.677490,421.749817 533.169678,421.657562 
	C532.545227,412.765900 532.218872,404.448608 531.303406,396.196686 
	C530.513855,389.078705 527.379272,385.876678 522.128845,385.642456 
	C515.820007,385.360962 510.806793,388.959015 509.583221,395.453979 
	C508.697083,400.157501 508.607605,405.027924 508.384186,409.834229 
	C508.201843,413.756592 508.347046,417.694183 508.347046,421.377289 
	C501.496460,422.132172 494.799774,422.347595 488.392151,423.820404 
	C485.634918,424.454193 482.490021,427.221558 481.234711,429.840820 
	C477.710297,437.194702 481.735718,444.073334 489.895844,445.088837 
	C495.773071,445.820251 501.745880,445.783478 507.896118,446.100677 
	C507.999359,447.402374 508.145538,448.364990 508.141602,449.327026 
	C508.076202,465.322083 507.819763,481.318878 507.985809,497.311310 
	C508.066833,505.113068 508.264404,513.019653 509.569031,520.681396 
	C512.599854,538.480713 526.460022,547.561523 544.291931,544.146118 
	C555.700500,541.960999 565.166870,530.364624 564.020325,519.978577 
	C563.490417,515.177612 559.381470,510.360779 555.164490,509.637421 
	C550.323547,508.807068 549.000366,512.537964 547.269287,515.749268 
	C546.796448,516.626526 546.432800,517.733154 545.684753,518.259155 
	C543.513672,519.785889 541.095825,522.234680 538.922546,522.090759 
	C537.117981,521.971313 535.357727,518.805969 533.905823,516.757446 
	C533.199219,515.760559 533.008179,514.237610 532.980469,512.944275 
	C532.520325,491.467987 532.076782,469.990875 531.847717,448.511597 
	C531.836182,447.429321 533.792419,445.379883 534.844849,445.371674 
	C558.127747,445.189819 581.412354,445.232574 605.167847,445.232574 
	C605.322388,447.240265 605.552063,449.012848 605.580994,450.788727 
	C605.882568,469.278870 606.142273,487.769684 606.433655,506.260010 
	C606.610291,517.468933 606.626038,517.468445 595.733582,517.959717 
	C594.901428,517.997192 594.065186,517.998596 593.238098,518.085449 
	C588.636108,518.569336 586.047302,521.151245 585.311951,525.690369 
	C583.829651,534.840149 588.381042,539.354370 600.685059,540.003418 
M798.302551,421.351715 
	C787.677551,421.548309 777.011902,421.251556 766.442444,422.122528 
	C759.879944,422.663330 757.615295,426.424805 757.557007,433.236450 
	C757.502136,439.649658 760.146790,443.081940 766.515625,444.492188 
	C768.603271,444.954437 770.838196,445.279602 772.936584,445.045959 
	C776.404114,444.660004 777.781494,446.126831 779.002502,449.263153 
	C790.091858,477.747223 801.439087,506.130920 812.523132,534.617065 
	C813.614380,537.421631 814.028625,540.769165 813.743896,543.768555 
	C813.226929,549.214661 812.406555,554.723511 810.865906,559.956787 
	C809.098267,565.960876 806.918945,571.965942 803.977905,577.467834 
	C801.058960,582.928589 795.878784,583.844238 791.802002,580.685059 
	C796.747070,572.408386 794.174316,564.723083 785.946106,563.192566 
	C778.265076,561.763794 771.631104,565.648865 769.053955,573.085144 
	C765.350281,583.771667 770.331177,595.916138 780.524109,601.052124 
	C793.189331,607.433838 808.784363,604.703064 818.587402,594.371277 
	C826.791443,585.724609 831.517944,574.986450 835.695679,564.162048 
	C849.931580,527.277039 863.887390,490.281250 877.546326,453.179108 
	C879.561646,447.704803 881.708740,445.141876 887.862427,445.273010 
	C895.541931,445.436707 898.041931,442.515503 898.627075,435.172180 
	C899.174988,428.294861 896.588928,423.612213 889.531799,423.291321 
	C874.979980,422.629578 860.362000,423.181641 845.779724,423.561951 
	C840.530945,423.698853 838.412659,427.554077 838.193420,432.364075 
	C837.976379,437.128510 839.767273,441.003937 844.617188,442.450226 
	C848.227783,443.526947 852.026184,443.973846 855.689148,444.691071 
	C846.839783,470.672607 837.959656,496.744415 829.752808,520.839600 
	C821.433594,496.856049 812.410400,470.842926 803.253113,444.443390 
	C804.951355,444.255249 806.719482,444.115906 808.469543,443.855682 
	C816.054321,442.727875 819.128906,439.497162 818.844666,433.015015 
	C818.549500,426.286804 814.923767,422.682007 807.720398,422.020905 
	C804.901123,421.762177 802.073059,421.598236 798.302551,421.351715 
M717.876404,349.239288 
	C701.612915,352.697815 691.498779,362.806213 688.763184,378.911224 
	C686.743469,390.801941 686.783752,403.044617 685.958496,415.134094 
	C685.817078,417.205872 685.938538,419.295624 685.938538,421.046539 
	C679.780273,421.998627 674.270325,422.344330 669.072571,423.802765 
	C664.306396,425.140106 663.257141,428.682983 663.882202,435.849030 
	C664.280334,440.414215 666.380310,443.405762 671.040649,444.045959 
	C674.823303,444.565521 678.651733,445.090790 682.452393,445.041351 
	C685.993042,444.995270 687.032166,446.293396 687.010986,449.717407 
	C686.888428,469.535065 686.972351,489.353912 686.906372,509.172089 
	C686.897766,511.754120 686.428345,514.334595 686.154785,517.093018 
	C682.331116,517.374329 679.027527,517.621033 675.723450,517.859558 
	C667.996155,518.417419 664.876587,521.384644 664.589905,528.456421 
	C664.311401,535.325378 667.370911,538.990723 674.745728,540.183594 
	C678.011292,540.711731 681.361328,541.029846 684.663513,540.964111 
	C696.478760,540.729309 708.294250,540.384094 720.099426,539.853149 
	C722.695618,539.736450 725.375671,538.991638 727.797424,537.999695 
	C733.003357,535.867371 735.189087,530.567749 733.953430,523.676880 
	C733.058167,518.684082 729.324463,516.951355 724.905334,516.664673 
	C720.326355,516.367554 715.713074,516.598511 710.939758,516.598511 
	C710.817139,515.887939 710.616577,515.256531 710.612305,514.623840 
	C710.465149,492.807770 710.460754,470.989532 710.099854,449.177155 
	C710.027954,444.834595 711.541321,444.478149 715.302368,444.550568 
	C723.908630,444.716278 732.563416,444.607513 741.128418,443.834137 
	C746.320679,443.365295 748.322510,439.557556 747.437927,434.418457 
	C746.387024,428.313324 742.172791,425.026917 736.667236,424.058258 
	C729.336182,422.768433 721.849304,422.184692 714.403564,421.805634 
	C710.959167,421.630280 709.652405,420.594177 709.676208,417.176025 
	C709.714417,411.686523 708.792175,406.113434 709.464722,400.723999 
	C710.381104,393.381042 711.254272,385.655487 714.233337,379.032928 
	C719.060791,368.301178 733.948914,367.763214 740.566772,377.532532 
	C739.867920,378.327026 739.140442,379.179749 738.385742,380.007538 
	C735.042969,383.674042 734.055603,387.865967 736.035767,392.447632 
	C738.038452,397.081207 741.887695,399.005066 746.818542,399.053467 
	C753.833801,399.122345 759.562927,394.964569 761.812378,388.121338 
	C765.305664,377.493927 760.635681,364.059418 751.182373,357.032501 
	C741.446350,349.795380 730.672119,347.106598 717.876404,349.239288 
M372.636322,540.928833 
	C378.756134,540.622742 384.967133,540.860413 390.969360,539.853455 
	C396.642517,538.901672 399.154816,534.637146 398.881897,528.858093 
	C398.595673,522.798645 395.490692,519.019714 389.791382,518.059509 
	C386.224304,517.458496 382.617065,517.096252 378.812439,516.598633 
	C378.721039,515.523254 378.578735,514.574524 378.568451,513.624390 
	C378.046387,465.344910 377.557098,417.065094 376.982239,368.786224 
	C376.936890,364.977753 376.513184,361.142731 375.905426,357.378174 
	C374.446075,348.337921 369.568115,345.577484 360.971191,348.426239 
	C355.938080,350.094086 350.766663,351.339996 345.687592,352.875488 
	C342.521973,353.832489 339.236328,354.628326 336.316040,356.110291 
	C330.862457,358.877777 329.321716,363.417847 330.979187,370.144897 
	C332.150879,374.900452 335.588959,377.351471 341.558563,377.160187 
	C345.471130,377.034821 349.366577,376.375031 353.687714,375.909546 
	C354.660431,423.025208 356.443085,469.670502 353.841522,516.559021 
	C350.601501,516.559021 347.778381,516.421631 344.973175,516.587219 
	C338.888977,516.946472 335.779663,519.268860 335.031128,523.772278 
	C333.851044,530.871948 336.219421,536.108337 341.992126,538.058960 
	C345.099152,539.108765 348.453949,539.655334 351.736877,539.906250 
	C358.369354,540.413208 365.029083,540.563477 372.636322,540.928833 
M419.517761,360.114380 
	C416.713318,361.156525 413.865143,362.095581 411.113892,363.263031 
	C405.962036,365.449249 404.199341,369.066864 405.469635,374.480194 
	C407.080688,381.345703 413.397644,384.653229 421.660919,382.871643 
	C424.306152,382.301331 426.905884,381.520111 429.888031,380.740906 
	C429.888031,382.713287 429.880219,384.030273 429.889160,385.347137 
	C430.165100,425.998444 430.384430,466.650299 430.765228,507.300629 
	C430.849579,516.301025 431.111603,516.292175 422.131592,518.046875 
	C421.155701,518.237549 420.182526,518.492859 419.245667,518.824341 
	C412.989166,521.037964 410.408478,525.069580 411.158142,531.397888 
	C411.940521,538.002441 415.002106,540.918213 421.985413,541.451294 
	C424.299286,541.627869 426.644348,541.458801 428.972504,541.375000 
	C439.108093,541.010681 449.242767,540.621216 459.377655,540.237244 
	C461.708466,540.148926 464.048096,540.146484 466.367554,539.931091 
	C473.157043,539.300598 476.829315,535.763977 477.115814,529.709595 
	C477.442902,522.798035 474.681732,519.104675 467.820984,517.742554 
	C464.901947,517.162964 461.886536,516.874878 458.909790,516.834656 
	C455.972198,516.794922 454.839569,515.728577 454.733826,512.707153 
	C454.302612,500.388641 453.168121,488.077759 453.170135,475.764221 
	C453.175720,441.450104 453.806396,407.135529 453.718781,372.822357 
	C453.702728,366.539429 452.377655,359.892822 450.017029,354.079987 
	C447.334137,347.473480 441.641815,346.797516 435.594177,350.683502 
	C430.576843,353.907410 425.375336,356.844788 419.517761,360.114380 
M312.191772,538.844849 
	C321.637085,536.451904 323.932434,533.580139 323.053101,525.255859 
	C322.428680,519.344727 318.431458,516.881836 309.445343,516.873047 
	C307.364441,516.870972 305.283508,516.872681 302.444122,516.872681 
	C302.444122,488.796173 302.301056,461.350647 302.511108,433.907837 
	C302.601227,422.135590 297.881622,417.785339 286.257294,419.714691 
	C280.524689,420.666138 274.741730,421.341003 268.964783,421.992310 
	C261.035553,422.886261 257.727203,426.248505 257.681702,433.712280 
	C257.636627,441.107849 260.481598,444.046783 268.657410,444.903290 
	C270.471100,445.093323 272.360657,445.281738 274.134583,444.986267 
	C278.542419,444.252106 279.435425,446.305542 279.439087,450.260651 
	C279.456085,468.567749 279.801544,486.874298 279.860657,505.181610 
	C279.897705,516.657654 279.763611,516.658081 268.430267,518.172546 
	C261.129364,519.148193 258.074280,522.156250 257.998108,528.444397 
	C257.916504,535.181580 260.861084,539.396851 268.026154,539.576721 
	C282.458771,539.939270 296.917572,539.258728 312.191772,538.844849 
M302.691345,376.031097 
	C301.961182,374.920135 301.298096,373.757660 300.489838,372.706757 
	C295.780060,366.582916 287.592865,364.497589 279.772858,367.388794 
	C272.389801,370.118469 268.397369,377.080109 268.977783,386.212189 
	C269.460052,393.799255 274.336578,400.076050 281.742981,401.496277 
	C288.766357,402.843048 295.395081,401.328766 300.399689,395.812927 
	C305.540222,390.147186 305.743713,383.589752 302.691345,376.031097 
M631.225464,379.513397 
	C626.924011,370.520477 621.970459,367.478821 612.451599,367.985626 
	C604.202698,368.424805 598.089661,374.399628 596.774597,383.308105 
	C595.526855,391.760681 600.080078,400.057404 607.589478,402.533234 
	C614.591187,404.841675 621.197083,403.365295 626.788574,398.878815 
	C632.840210,394.023102 633.122681,387.256927 631.225464,379.513397 
M442.542480,140.718964 
	C435.576691,139.229095 428.610901,137.739243 421.778442,136.277908 
	C418.789520,139.665359 419.769653,141.899017 423.047913,144.070068 
	C426.260376,146.197556 429.166595,148.787506 432.858307,151.685577 
	C427.867676,151.685577 423.884735,152.045242 419.997894,151.587936 
	C415.820709,151.096481 414.249939,152.723373 414.193542,156.722778 
	C421.038910,160.430771 427.821960,164.105011 434.605011,167.779236 
	C435.089508,167.435562 435.574005,167.091888 436.058502,166.748215 
	C435.292206,165.329346 434.879486,163.366806 433.692474,162.594925 
	C430.309052,160.394775 426.610413,158.679367 421.961121,156.200180 
	C427.327454,156.200180 431.399994,156.354584 435.450195,156.121124 
	C436.984161,156.032700 438.466614,155.049789 439.972534,154.474594 
	C439.122955,153.067703 438.536957,151.369904 437.370392,150.312775 
	C434.712585,147.904388 431.769989,145.810242 428.943115,143.588409 
	C429.234192,143.147827 429.525269,142.707245 429.816345,142.266663 
	C433.491730,143.100510 437.150299,144.026245 440.854309,144.703476 
	C441.777618,144.872284 443.333069,144.532074 443.717407,143.894775 
	C444.124542,143.219696 443.482269,141.911758 442.542480,140.718964 
M410.519867,243.288773 
	C409.478851,245.288773 408.437805,247.288773 407.396759,249.288773 
	C407.841461,249.616913 408.286133,249.945068 408.730835,250.273209 
	C416.393311,249.260803 424.055786,248.248398 431.726746,247.234879 
	C431.050171,242.846466 431.051361,242.855698 427.670959,243.291000 
	C424.084900,243.752792 420.496246,244.194641 416.517090,244.694382 
	C419.963684,237.781860 429.256317,236.376984 429.710358,227.306274 
	C421.286865,228.382767 413.750854,229.345840 405.793610,230.362747 
	C406.032623,231.972763 406.229187,233.296814 406.423126,234.603180 
	C411.563110,234.024872 416.178864,233.505524 422.107147,232.838516 
	C417.714722,236.818100 414.407715,239.814285 410.519867,243.288773 
M677.406555,32.261890 
	C672.144226,27.081373 665.939148,26.054436 660.913086,29.532269 
	C656.120667,32.848415 654.032043,39.670269 656.181946,44.985104 
	C658.280457,50.172802 664.195557,53.109146 670.073364,52.150848 
	C677.207825,50.987671 683.153198,40.537880 677.406555,32.261890 
M412.007355,195.144638 
	C405.014587,199.154953 405.385803,205.896317 405.189301,212.823029 
	C412.300476,213.241165 419.072601,213.646027 425.845856,214.030090 
	C426.805420,214.084503 427.770752,214.037613 428.691589,214.037613 
	C430.446564,198.269562 424.715057,191.533569 412.007355,195.144638 
M736.428833,76.310081 
	C738.020325,75.138992 739.611816,73.967903 741.541687,72.547844 
	C739.509644,70.745369 738.501221,69.850861 737.534607,68.993385 
	C731.854492,74.726173 726.476685,80.153816 720.892517,85.789810 
	C721.952087,86.664879 723.013062,87.541115 725.009705,89.190048 
	C727.041321,86.594330 728.862854,84.267075 730.482178,82.198090 
	C733.291077,84.643906 735.771729,86.803886 739.204651,89.793015 
	C736.179932,91.915886 733.605042,93.723022 731.020325,95.537056 
	C732.552246,97.440712 733.351135,98.433502 734.184631,99.469238 
	C739.931213,93.522041 745.328125,87.936790 750.970947,82.097000 
	C750.416565,81.507439 749.550415,80.586403 748.555542,79.528404 
	C745.938477,81.957405 743.677856,84.055565 741.129150,86.421173 
	C739.094055,84.248337 737.099854,82.439201 735.567261,80.299507 
	C735.068420,79.603096 735.774902,78.043350 736.428833,76.310081 
M790.533325,268.976349 
	C784.258484,266.912842 777.983643,264.849335 771.413269,262.688629 
	C770.875183,264.182373 770.453552,265.352936 769.933228,266.797272 
	C772.503906,267.750153 774.809937,268.604919 777.341125,269.543152 
	C773.706970,273.062500 766.462280,271.284668 766.465759,278.792267 
	C769.949707,277.467957 773.232788,276.220032 776.577393,274.948700 
	C777.591248,280.860321 779.661743,283.269440 783.720642,283.594391 
	C788.299438,283.960999 795.236755,274.534546 793.434082,270.254211 
	C793.194763,269.686066 792.018372,269.512512 790.533325,268.976349 
M775.646057,244.645386 
	C776.742432,248.652786 779.549072,250.691742 783.486267,251.334167 
	C788.221069,252.106750 792.968567,252.801895 797.877991,253.556305 
	C798.200745,251.963699 798.452271,250.722855 798.758118,249.213608 
	C794.233887,248.473816 789.998047,247.693314 785.735229,247.110596 
	C782.006958,246.600967 779.131592,245.323471 779.806335,240.875244 
	C780.476196,236.459534 783.894226,236.658234 787.137024,237.051346 
	C791.401672,237.568329 795.642883,238.278946 800.285706,238.964066 
	C800.456848,237.319550 800.598328,235.960342 800.755737,234.448196 
	C796.177429,233.782486 792.069824,233.224945 787.975708,232.581650 
	C779.438782,231.240311 775.163391,235.075684 775.646057,244.645386 
M529.973083,30.179064 
	C520.124451,34.826942 521.308044,46.989449 528.282837,51.915817 
	C532.767029,55.083027 538.951843,54.525944 543.551208,50.961597 
	C548.439209,47.173603 544.066040,43.922073 543.242981,40.473682 
	C542.422668,37.036358 540.661011,37.756332 538.592163,39.653198 
	C539.045532,40.875782 539.482483,42.103851 539.954529,43.318283 
	C541.573730,47.483925 539.477356,50.290745 534.896057,49.762470 
	C530.760132,49.285553 528.424133,46.636066 527.677307,42.635311 
	C526.943481,38.704594 528.471619,35.680668 532.092407,34.135998 
	C534.244080,33.218063 536.705383,33.025845 539.099609,32.491234 
	C537.493713,27.025537 533.924133,29.107872 529.973083,30.179064 
M794.397339,167.352951 
	C789.854797,168.281830 785.256897,169.003052 780.784058,170.193817 
	C775.560547,171.584442 773.038513,176.040771 774.061707,181.309601 
	C775.020813,186.248474 778.948425,189.538818 784.084473,188.919449 
	C789.410889,188.277130 794.655823,186.959000 799.713440,185.979599 
	C799.739441,181.942520 797.993408,181.483902 795.188477,182.189011 
	C791.981445,182.995178 788.701416,183.512161 785.451477,184.146271 
	C781.940002,184.831421 778.924500,184.178024 778.235107,180.181549 
	C777.519348,176.032867 780.595947,174.787323 783.883240,174.087952 
	C788.186584,173.172440 792.508057,172.342590 797.545593,171.330475 
	C796.525024,169.551392 795.852417,168.378937 794.397339,167.352951 
M416.402252,267.342590 
	C415.104614,266.806152 413.806976,266.269714 411.408356,265.278107 
	C413.370270,271.358032 414.776886,275.717041 416.224335,280.202545 
	C424.069061,277.720734 431.441498,275.388336 438.793121,273.062561 
	C434.375641,257.832336 434.831390,258.157318 430.985077,261.159912 
	C431.371277,262.538788 431.763214,263.971497 432.174835,265.398499 
	C432.580353,266.804382 433.005768,268.204498 433.509552,269.900330 
	C431.549713,270.527435 429.801361,271.086853 428.089325,271.634674 
	C425.012299,263.372253 425.012299,263.372253 421.781433,264.823303 
	C422.503540,267.440857 423.232239,270.082214 424.020874,272.940857 
	C422.130554,273.460449 420.584717,273.885345 418.684692,274.407593 
	C417.970154,272.081635 417.347595,270.055054 416.402252,267.342590 
M430.896759,117.105072 
	C431.081482,117.883965 431.007538,119.078384 431.490112,119.378754 
	C437.672089,123.226578 443.933655,126.946526 450.433228,130.854141 
	C452.977081,126.649460 455.362366,122.706909 457.881226,118.543549 
	C456.495453,117.823463 455.423706,117.266556 454.280670,116.672592 
	C452.500366,119.510483 450.940643,121.996788 449.231628,124.721046 
	C447.395050,123.634682 445.855164,122.723793 444.798065,122.098495 
	C443.876770,118.486313 450.998962,116.198769 445.589539,111.880943 
	C443.784821,114.751114 442.298981,117.114082 440.693024,119.668152 
	C438.983459,118.600533 437.496674,117.672028 435.977905,116.723564 
	C437.655670,113.845421 439.155701,111.272156 440.670471,108.673660 
	C438.873383,106.580696 437.395233,105.860016 435.828888,108.805511 
	C434.430481,111.435219 432.750793,113.915337 430.896759,117.105072 
M569.209778,32.941616 
	C569.588562,30.704126 569.076660,29.369375 566.398010,30.001413 
	C564.377075,30.478260 562.328491,30.838104 560.115356,31.285805 
	C559.672791,29.258780 559.335632,27.714676 558.955688,25.974791 
	C562.159546,25.162548 565.006042,24.440899 569.729675,23.243370 
	C567.448792,21.727823 566.156311,20.151903 565.101868,20.297667 
	C561.368958,20.813681 557.717407,21.918209 553.546753,22.916573 
	C555.289307,30.739359 556.966125,38.267269 558.723572,46.156776 
	C563.557495,45.048447 568.019043,44.025505 572.826477,42.923271 
	C572.380615,41.382370 572.047913,40.232250 571.703674,39.042435 
	C568.393066,39.754749 565.492493,40.378834 562.324829,41.060390 
	C561.881470,39.092632 561.466309,37.249641 561.028564,35.306606 
	C563.801208,34.616570 566.202515,34.018959 569.209778,32.941616 
M499.656250,66.865807 
	C500.087585,68.911163 500.518921,70.956520 501.188141,74.130028 
	C502.825867,72.089508 504.824951,70.499413 504.550995,69.800949 
	C501.770599,62.712837 507.845459,62.125305 511.332489,59.694061 
	C514.280945,60.815975 516.539185,65.644005 520.282410,60.607311 
	C514.125427,55.989620 508.115967,51.365089 501.934662,46.982952 
	C501.082611,46.378891 498.985962,46.487453 498.170319,47.142998 
	C497.184448,47.935295 496.320801,49.754562 496.499359,50.968269 
	C497.244934,56.036613 498.401276,61.044529 499.656250,66.865807 
M747.805115,106.321144 
	C746.235962,107.466354 744.666748,108.611572 743.128235,109.734367 
	C750.305054,121.984360 750.305054,121.984360 754.159302,119.071480 
	C752.459045,116.528915 750.744202,113.964592 748.911804,111.224541 
	C750.563232,110.044067 752.022400,109.001045 753.467163,107.968269 
	C759.439575,114.732071 759.439575,114.732071 761.744019,112.501434 
	C760.175110,110.190369 758.609314,107.883926 756.957214,105.450340 
	C758.697998,104.375320 760.167358,103.467941 761.695496,102.524261 
	C763.663269,105.220299 765.408020,107.610733 767.356262,110.279961 
	C768.481628,109.381630 769.419312,108.633095 770.490479,107.778030 
	C767.749084,103.847244 765.203186,100.196793 762.418701,96.204247 
	C757.609375,99.543945 753.006470,102.740318 747.805115,106.321144 
M761.974670,297.173767 
	C764.819397,293.686493 766.084290,297.543457 768.229858,298.138245 
	C766.882080,300.853210 765.713318,303.207581 764.433228,305.786133 
	C765.420654,306.322754 766.893860,307.283478 766.995850,307.155060 
	C768.778503,304.910614 770.393311,302.532837 772.235352,299.912720 
	C773.678223,300.696228 775.091919,301.463898 776.489807,302.223022 
	C773.253235,311.212311 773.253235,311.212311 776.165222,312.670227 
	C778.250427,308.639252 780.338562,304.602570 782.607483,300.216522 
	C775.387756,296.474579 768.540466,292.925629 761.450378,289.250854 
	C759.122375,293.716400 757.014343,297.760071 754.804932,301.998169 
	C756.277466,302.665894 757.297607,303.128510 758.481995,303.665558 
	C759.585205,301.632568 760.605957,299.751648 761.974670,297.173767 
M596.765259,39.214527 
	C600.605713,34.115528 599.806946,30.315628 594.293213,27.725716 
	C592.797546,27.023191 591.074036,26.717930 589.723389,25.824680 
	C588.781189,25.201630 587.606445,23.728983 587.791199,22.924025 
	C587.996887,22.027925 589.580566,20.951130 590.645203,20.855848 
	C592.664307,20.675142 594.741028,21.138466 596.793884,21.334261 
	C597.065430,20.944572 597.336914,20.554886 597.608459,20.165197 
	C596.274292,19.048811 595.080872,17.259308 593.578918,16.945299 
	C589.471191,16.086494 585.073914,16.581362 583.591431,21.085186 
	C582.918396,23.129826 584.204529,26.530098 585.733337,28.380770 
	C587.147949,30.093073 590.178650,30.382095 592.283447,31.652691 
	C593.219421,32.217724 594.254883,33.758255 594.104187,34.666817 
	C593.948853,35.603695 592.445618,36.932014 591.462646,36.994331 
	C589.092285,37.144604 586.681458,36.655785 584.096130,36.406277 
	C583.163940,39.211311 584.518555,41.022278 587.547180,40.995659 
	C590.423218,40.970383 593.292480,40.163769 596.765259,39.214527 
M425.211548,294.468048 
	C421.830750,297.372498 423.793488,300.623840 425.678833,302.653564 
	C427.417023,304.524902 430.815033,306.166077 433.128082,305.781372 
	C435.015350,305.467438 436.698364,302.174286 437.854950,299.889740 
	C438.524750,298.566620 437.683502,296.556152 438.059937,294.983734 
	C438.394867,293.584564 439.470459,292.362671 440.219177,291.062561 
	C441.491150,291.942200 443.308105,292.551392 443.909790,293.763702 
	C444.856720,295.671753 444.985809,297.985687 445.472260,300.177917 
	C449.984283,297.803772 449.111053,290.665771 444.159729,287.514343 
	C439.676575,284.660919 434.419739,287.130707 433.868286,292.438599 
	C433.663330,294.411438 434.083954,296.470673 433.725189,298.398529 
	C433.491089,299.656372 432.367310,300.748657 431.642059,301.915070 
	C430.517334,301.077209 429.091980,300.446045 428.339752,299.352051 
	C427.262421,297.785217 426.676788,295.880341 425.211548,294.468048 
M452.500702,85.971046 
	C449.336731,88.957718 447.325958,92.413918 450.123169,96.514404 
	C453.098480,100.875961 457.013580,99.313980 460.762939,97.441383 
	C461.505707,97.070404 462.257690,96.497101 463.029205,96.455200 
	C464.243896,96.389236 466.224335,96.311371 466.541229,96.927452 
	C467.104401,98.022385 467.229889,100.123184 466.530823,100.929466 
	C464.909424,102.799477 462.686890,104.148262 460.395874,105.954445 
	C461.838593,106.599281 463.837067,108.009018 464.300720,107.614609 
	C466.988068,105.328430 470.006653,102.954109 471.484344,99.914902 
	C472.283203,98.271889 470.929382,94.113251 469.308868,93.130394 
	C467.228394,91.868538 463.889252,92.440781 461.119659,92.627449 
	C458.613434,92.796364 456.053101,96.888718 453.921448,93.327232 
	C453.350220,92.372849 456.717133,89.065140 458.267365,86.831665 
	C458.432129,86.594254 458.537567,86.315643 458.693451,86.011436 
	C457.085083,83.131783 455.123413,83.745033 452.500702,85.971046 
M469.027924,73.190056 
	C470.561066,78.139740 474.117249,78.821350 478.524445,77.677269 
	C479.649750,77.385139 480.777252,76.735657 481.875000,76.793732 
	C483.320953,76.870232 484.738556,77.483360 486.168335,77.865761 
	C485.660461,79.328407 485.556458,81.236137 484.550018,82.149338 
	C483.043030,83.516724 480.901917,84.185219 479.024933,85.153847 
	C481.765198,88.714867 486.946564,87.803001 489.565308,82.678505 
	C490.659760,80.536850 490.802887,76.924576 489.682709,74.936401 
	C488.727234,73.240524 485.404236,72.441856 483.014069,72.133263 
	C481.198517,71.898865 479.229675,73.270042 477.277374,73.515099 
	C476.155609,73.655907 474.930847,72.976395 473.752472,72.666168 
	C474.114746,71.363365 474.094574,69.680351 474.926056,68.844063 
	C476.278778,67.483498 478.188477,66.676659 479.863068,65.636101 
	C479.865387,65.143501 479.867676,64.650894 479.869995,64.158287 
	C478.041809,64.141655 475.429688,63.353821 474.538818,64.259354 
	C472.267395,66.568222 470.764343,69.633011 469.027924,73.190056 
M764.759094,148.372543 
	C767.661926,154.812393 771.029053,146.908661 774.726685,149.464554 
	C775.090271,150.358017 775.570251,152.330673 776.642944,153.897644 
	C777.369873,154.959641 778.929504,155.451584 780.116760,156.198471 
	C780.420898,155.778152 780.725098,155.357849 781.029236,154.937531 
	C780.114624,152.224548 779.200012,149.511581 778.222473,146.611969 
	C780.510193,145.856674 782.321655,145.258621 784.075745,144.679489 
	C787.994141,153.156067 787.994141,153.156067 791.374329,151.321182 
	C789.761292,147.171143 788.135010,142.986847 786.327942,138.337555 
	C778.665100,141.627991 771.588440,144.666763 764.759094,148.372543 
M787.562500,208.208588 
	C784.448242,208.208588 781.333923,208.208588 778.111877,208.208588 
	C778.111877,210.281799 778.111877,211.627472 778.111877,213.092545 
	C784.721680,213.092545 790.971619,213.092545 797.266174,213.092545 
	C797.533569,215.450455 797.769836,217.533325 798.006104,219.616196 
	C798.418457,219.881363 798.830811,220.146515 799.243164,220.411682 
	C800.124268,219.383575 801.715271,218.389771 801.766846,217.321594 
	C802.027161,211.932175 801.886536,206.523392 801.886536,201.123322 
	C794.356689,200.254333 798.596924,205.721664 796.378784,208.184219 
	C794.113831,208.184219 791.321594,208.184219 787.562500,208.208588 
M647.249573,23.135149 
	C646.767578,22.443764 646.383362,21.255589 645.788330,21.138468 
	C640.309448,20.060019 634.794006,19.166922 629.319031,18.225004 
	C627.004150,24.733980 633.247559,21.795982 635.193909,24.161459 
	C634.176208,30.151251 633.104797,36.457588 632.034485,42.756889 
	C636.417236,43.474487 636.392212,43.469826 637.081482,39.768898 
	C638.034607,34.651737 639.030029,29.542454 639.807922,25.473101 
	C642.907410,24.781874 645.022278,24.310221 647.249573,23.135149 
M705.719421,67.198753 
	C704.773193,68.553558 703.826965,69.908363 702.699646,71.522537 
	C703.986145,72.392548 705.140076,73.172882 706.386047,74.015465 
	C710.244873,68.630196 713.892456,63.539722 717.653442,58.291019 
	C719.740906,59.629692 721.528870,60.776253 723.572693,62.086937 
	C724.295471,60.961800 724.962646,59.923183 725.735779,58.719540 
	C720.615906,55.071602 715.762512,51.613571 710.645813,47.967945 
	C709.843445,49.243416 709.194153,50.275478 708.490540,51.393951 
	C710.404907,52.847061 712.105408,54.137836 713.977905,55.559181 
	C711.308899,59.293060 708.701904,62.940163 705.719421,67.198753 
z"/>
<path fill="#030303" opacity="1.000000" stroke="none" 
	d="
M127.672195,500.761536 
	C124.944504,509.555359 122.513771,518.026306 119.722206,526.376587 
	C115.290253,539.633667 102.993843,546.525574 90.374695,543.160217 
	C83.445160,541.312256 79.940689,536.066040 78.003471,529.898926 
	C72.127838,511.193939 66.608185,492.376892 60.981716,473.593994 
	C58.501617,465.314606 55.986099,457.042694 53.719692,448.704071 
	C52.898418,445.682434 51.745903,444.131378 48.276661,444.533630 
	C45.847794,444.815247 43.286575,444.347321 40.831593,443.934143 
	C34.853542,442.928009 31.328863,438.903656 31.086918,433.061493 
	C30.840219,427.104584 32.857594,423.964203 39.597687,422.786713 
	C55.277199,420.047424 71.096466,419.982269 86.843498,422.366364 
	C90.319984,422.892731 93.455925,424.702759 93.999214,428.972137 
	C94.736397,434.765137 92.907372,439.844635 88.387650,441.760071 
	C84.805443,443.278168 80.798248,443.793488 76.791466,444.801422 
	C83.900070,469.331970 91.166878,494.408447 98.360657,519.232971 
	C103.852211,501.118652 109.367729,482.699341 115.037308,464.327576 
	C117.535751,456.231567 120.117294,448.146179 123.083565,440.213928 
	C125.860130,432.789093 130.472565,427.393677 139.329803,426.889954 
	C148.878357,426.346893 155.746094,430.186310 159.004227,438.979126 
	C163.732376,451.739197 167.994019,464.688080 171.988846,477.699463 
	C176.034805,490.877380 179.514084,504.229309 184.325607,517.876465 
	C191.332077,493.309570 198.338562,468.742737 205.279236,444.406586 
	C201.949951,443.667145 198.297791,443.179993 194.872375,442.022095 
	C189.220062,440.111359 186.370941,435.602631 186.849030,430.200043 
	C187.281326,425.314880 189.765289,422.319946 196.373154,421.940247 
	C209.809311,421.168274 223.308014,420.891266 236.759735,421.236511 
	C243.391541,421.406708 246.247726,426.445282 245.830688,434.314850 
	C245.459366,441.322113 243.221588,444.107330 236.034546,444.103058 
	C230.074310,444.099518 228.046951,446.461182 226.602203,452.057037 
	C220.619705,475.228729 214.163544,498.283081 207.502045,521.270630 
	C206.050293,526.280396 203.727371,531.355408 200.615005,535.508057 
	C190.253586,549.332397 170.197525,546.895813 163.955856,530.784607 
	C158.864426,517.642395 155.052048,503.988525 151.015686,490.459106 
	C147.975723,480.269562 145.512909,469.908722 142.703415,459.648682 
	C142.291306,458.143768 141.380783,456.775330 140.893082,455.748444 
	C136.556961,470.539093 132.182144,485.461823 127.672195,500.761536 
z"/>
<path fill="#040404" opacity="1.000000" stroke="none" 
	d="
M600.214844,539.991150 
	C588.381042,539.354370 583.829651,534.840149 585.311951,525.690369 
	C586.047302,521.151245 588.636108,518.569336 593.238098,518.085449 
	C594.065186,517.998596 594.901428,517.997192 595.733582,517.959717 
	C606.626038,517.468445 606.610291,517.468933 606.433655,506.260010 
	C606.142273,487.769684 605.882568,469.278870 605.580994,450.788727 
	C605.552063,449.012848 605.322388,447.240265 605.167847,445.232574 
	C581.412354,445.232574 558.127747,445.189819 534.844849,445.371674 
	C533.792419,445.379883 531.836182,447.429321 531.847717,448.511597 
	C532.076782,469.990875 532.520325,491.467987 532.980469,512.944275 
	C533.008179,514.237610 533.199219,515.760559 533.905823,516.757446 
	C535.357727,518.805969 537.117981,521.971313 538.922546,522.090759 
	C541.095825,522.234680 543.513672,519.785889 545.684753,518.259155 
	C546.432800,517.733154 546.796448,516.626526 547.269287,515.749268 
	C549.000366,512.537964 550.323547,508.807068 555.164490,509.637421 
	C559.381470,510.360779 563.490417,515.177612 564.020325,519.978577 
	C565.166870,530.364624 555.700500,541.960999 544.291931,544.146118 
	C526.460022,547.561523 512.599854,538.480713 509.569031,520.681396 
	C508.264404,513.019653 508.066833,505.113068 507.985809,497.311310 
	C507.819763,481.318878 508.076202,465.322083 508.141602,449.327026 
	C508.145538,448.364990 507.999359,447.402374 507.896118,446.100677 
	C501.745880,445.783478 495.773071,445.820251 489.895844,445.088837 
	C481.735718,444.073334 477.710297,437.194702 481.234711,429.840820 
	C482.490021,427.221558 485.634918,424.454193 488.392151,423.820404 
	C494.799774,422.347595 501.496460,422.132172 508.347046,421.377289 
	C508.347046,417.694183 508.201843,413.756592 508.384186,409.834229 
	C508.607605,405.027924 508.697083,400.157501 509.583221,395.453979 
	C510.806793,388.959015 515.820007,385.360962 522.128845,385.642456 
	C527.379272,385.876678 530.513855,389.078705 531.303406,396.196686 
	C532.218872,404.448608 532.545227,412.765900 533.169678,421.657562 
	C534.677490,421.749817 536.277100,421.936340 537.876099,421.932281 
	C563.512573,421.867615 589.175171,423.167419 614.732544,419.688751 
	C624.529663,418.355225 628.810608,422.317932 628.956177,432.142059 
	C629.346252,458.459686 629.586548,484.779572 629.881958,511.098572 
	C629.901917,512.878174 629.884583,514.658203 629.884583,516.401550 
	C634.178711,516.925354 637.943359,517.311951 641.684570,517.858643 
	C646.730225,518.595825 649.184143,521.708862 649.469604,526.698547 
	C649.792786,532.346924 647.724121,536.302612 642.918701,537.778137 
	C639.294617,538.890991 635.444580,539.700500 631.670776,539.810364 
	C621.349060,540.110596 611.014526,539.969666 600.214844,539.991150 
z"/>
<path fill="#030303" opacity="1.000000" stroke="none" 
	d="
M798.775757,421.371399 
	C802.073059,421.598236 804.901123,421.762177 807.720398,422.020905 
	C814.923767,422.682007 818.549500,426.286804 818.844666,433.015015 
	C819.128906,439.497162 816.054321,442.727875 808.469543,443.855682 
	C806.719482,444.115906 804.951355,444.255249 803.253113,444.443390 
	C812.410400,470.842926 821.433594,496.856049 829.752808,520.839600 
	C837.959656,496.744415 846.839783,470.672607 855.689148,444.691071 
	C852.026184,443.973846 848.227783,443.526947 844.617188,442.450226 
	C839.767273,441.003937 837.976379,437.128510 838.193420,432.364075 
	C838.412659,427.554077 840.530945,423.698853 845.779724,423.561951 
	C860.362000,423.181641 874.979980,422.629578 889.531799,423.291321 
	C896.588928,423.612213 899.174988,428.294861 898.627075,435.172180 
	C898.041931,442.515503 895.541931,445.436707 887.862427,445.273010 
	C881.708740,445.141876 879.561646,447.704803 877.546326,453.179108 
	C863.887390,490.281250 849.931580,527.277039 835.695679,564.162048 
	C831.517944,574.986450 826.791443,585.724609 818.587402,594.371277 
	C808.784363,604.703064 793.189331,607.433838 780.524109,601.052124 
	C770.331177,595.916138 765.350281,583.771667 769.053955,573.085144 
	C771.631104,565.648865 778.265076,561.763794 785.946106,563.192566 
	C794.174316,564.723083 796.747070,572.408386 791.802002,580.685059 
	C795.878784,583.844238 801.058960,582.928589 803.977905,577.467834 
	C806.918945,571.965942 809.098267,565.960876 810.865906,559.956787 
	C812.406555,554.723511 813.226929,549.214661 813.743896,543.768555 
	C814.028625,540.769165 813.614380,537.421631 812.523132,534.617065 
	C801.439087,506.130920 790.091858,477.747223 779.002502,449.263153 
	C777.781494,446.126831 776.404114,444.660004 772.936584,445.045959 
	C770.838196,445.279602 768.603271,444.954437 766.515625,444.492188 
	C760.146790,443.081940 757.502136,439.649658 757.557007,433.236450 
	C757.615295,426.424805 759.879944,422.663330 766.442444,422.122528 
	C777.011902,421.251556 787.677551,421.548309 798.775757,421.371399 
z"/>
<path fill="#040404" opacity="1.000000" stroke="none" 
	d="
M718.296204,349.192017 
	C730.672119,347.106598 741.446350,349.795380 751.182373,357.032501 
	C760.635681,364.059418 765.305664,377.493927 761.812378,388.121338 
	C759.562927,394.964569 753.833801,399.122345 746.818542,399.053467 
	C741.887695,399.005066 738.038452,397.081207 736.035767,392.447632 
	C734.055603,387.865967 735.042969,383.674042 738.385742,380.007538 
	C739.140442,379.179749 739.867920,378.327026 740.566772,377.532532 
	C733.948914,367.763214 719.060791,368.301178 714.233337,379.032928 
	C711.254272,385.655487 710.381104,393.381042 709.464722,400.723999 
	C708.792175,406.113434 709.714417,411.686523 709.676208,417.176025 
	C709.652405,420.594177 710.959167,421.630280 714.403564,421.805634 
	C721.849304,422.184692 729.336182,422.768433 736.667236,424.058258 
	C742.172791,425.026917 746.387024,428.313324 747.437927,434.418457 
	C748.322510,439.557556 746.320679,443.365295 741.128418,443.834137 
	C732.563416,444.607513 723.908630,444.716278 715.302368,444.550568 
	C711.541321,444.478149 710.027954,444.834595 710.099854,449.177155 
	C710.460754,470.989532 710.465149,492.807770 710.612305,514.623840 
	C710.616577,515.256531 710.817139,515.887939 710.939758,516.598511 
	C715.713074,516.598511 720.326355,516.367554 724.905334,516.664673 
	C729.324463,516.951355 733.058167,518.684082 733.953430,523.676880 
	C735.189087,530.567749 733.003357,535.867371 727.797424,537.999695 
	C725.375671,538.991638 722.695618,539.736450 720.099426,539.853149 
	C708.294250,540.384094 696.478760,540.729309 684.663513,540.964111 
	C681.361328,541.029846 678.011292,540.711731 674.745728,540.183594 
	C667.370911,538.990723 664.311401,535.325378 664.589905,528.456421 
	C664.876587,521.384644 667.996155,518.417419 675.723450,517.859558 
	C679.027527,517.621033 682.331116,517.374329 686.154785,517.093018 
	C686.428345,514.334595 686.897766,511.754120 686.906372,509.172089 
	C686.972351,489.353912 686.888428,469.535065 687.010986,449.717407 
	C687.032166,446.293396 685.993042,444.995270 682.452393,445.041351 
	C678.651733,445.090790 674.823303,444.565521 671.040649,444.045959 
	C666.380310,443.405762 664.280334,440.414215 663.882202,435.849030 
	C663.257141,428.682983 664.306396,425.140106 669.072571,423.802765 
	C674.270325,422.344330 679.780273,421.998627 685.938538,421.046539 
	C685.938538,419.295624 685.817078,417.205872 685.958496,415.134094 
	C686.783752,403.044617 686.743469,390.801941 688.763184,378.911224 
	C691.498779,362.806213 701.612915,352.697815 718.296204,349.192017 
z"/>
<path fill="#040404" opacity="1.000000" stroke="none" 
	d="
M372.156952,540.894836 
	C365.029083,540.563477 358.369354,540.413208 351.736877,539.906250 
	C348.453949,539.655334 345.099152,539.108765 341.992126,538.058960 
	C336.219421,536.108337 333.851044,530.871948 335.031128,523.772278 
	C335.779663,519.268860 338.888977,516.946472 344.973175,516.587219 
	C347.778381,516.421631 350.601501,516.559021 353.841522,516.559021 
	C356.443085,469.670502 354.660431,423.025208 353.687714,375.909546 
	C349.366577,376.375031 345.471130,377.034821 341.558563,377.160187 
	C335.588959,377.351471 332.150879,374.900452 330.979187,370.144897 
	C329.321716,363.417847 330.862457,358.877777 336.316040,356.110291 
	C339.236328,354.628326 342.521973,353.832489 345.687592,352.875488 
	C350.766663,351.339996 355.938080,350.094086 360.971191,348.426239 
	C369.568115,345.577484 374.446075,348.337921 375.905426,357.378174 
	C376.513184,361.142731 376.936890,364.977753 376.982239,368.786224 
	C377.557098,417.065094 378.046387,465.344910 378.568451,513.624390 
	C378.578735,514.574524 378.721039,515.523254 378.812439,516.598633 
	C382.617065,517.096252 386.224304,517.458496 389.791382,518.059509 
	C395.490692,519.019714 398.595673,522.798645 398.881897,528.858093 
	C399.154816,534.637146 396.642517,538.901672 390.969360,539.853455 
	C384.967133,540.860413 378.756134,540.622742 372.156952,540.894836 
z"/>
<path fill="#030303" opacity="1.000000" stroke="none" 
	d="
M419.886597,360.011749 
	C425.375336,356.844788 430.576843,353.907410 435.594177,350.683502 
	C441.641815,346.797516 447.334137,347.473480 450.017029,354.079987 
	C452.377655,359.892822 453.702728,366.539429 453.718781,372.822357 
	C453.806396,407.135529 453.175720,441.450104 453.170135,475.764221 
	C453.168121,488.077759 454.302612,500.388641 454.733826,512.707153 
	C454.839569,515.728577 455.972198,516.794922 458.909790,516.834656 
	C461.886536,516.874878 464.901947,517.162964 467.820984,517.742554 
	C474.681732,519.104675 477.442902,522.798035 477.115814,529.709595 
	C476.829315,535.763977 473.157043,539.300598 466.367554,539.931091 
	C464.048096,540.146484 461.708466,540.148926 459.377655,540.237244 
	C449.242767,540.621216 439.108093,541.010681 428.972504,541.375000 
	C426.644348,541.458801 424.299286,541.627869 421.985413,541.451294 
	C415.002106,540.918213 411.940521,538.002441 411.158142,531.397888 
	C410.408478,525.069580 412.989166,521.037964 419.245667,518.824341 
	C420.182526,518.492859 421.155701,518.237549 422.131592,518.046875 
	C431.111603,516.292175 430.849579,516.301025 430.765228,507.300629 
	C430.384430,466.650299 430.165100,425.998444 429.889160,385.347137 
	C429.880219,384.030273 429.888031,382.713287 429.888031,380.740906 
	C426.905884,381.520111 424.306152,382.301331 421.660919,382.871643 
	C413.397644,384.653229 407.080688,381.345703 405.469635,374.480194 
	C404.199341,369.066864 405.962036,365.449249 411.113892,363.263031 
	C413.865143,362.095581 416.713318,361.156525 419.886597,360.011749 
z"/>
<path fill="#D5E5ED" opacity="1.000000" stroke="none" 
	d="
M555.034180,150.756470 
	C555.033569,146.425629 555.255676,142.079987 554.969482,137.768097 
	C554.685303,133.487122 556.095947,131.807816 560.594177,131.942947 
	C569.580444,132.212906 578.581848,131.978378 588.428223,132.132507 
	C600.041748,132.272476 610.803955,132.232101 621.566223,132.191742 
	C630.018982,132.138748 638.475281,132.211777 646.922668,131.970993 
	C650.322327,131.874084 651.206970,133.238434 651.072571,136.363907 
	C650.887634,140.664902 651.066101,144.981522 651.171631,150.219879 
	C651.290283,163.064194 651.326172,174.980087 651.224243,187.231079 
	C646.469604,191.747559 641.852905,195.928925 636.748230,200.072113 
	C626.059509,200.070770 615.858643,200.107605 605.365234,200.197937 
	C604.348145,200.498474 603.623779,200.745529 602.578613,201.031357 
	C601.847046,201.734512 601.436279,202.398895 600.932495,203.386444 
	C598.512512,205.758911 596.304749,207.969086 593.822083,209.808167 
	C591.727051,211.360092 589.312988,212.481491 586.922852,213.487518 
	C577.881287,205.780334 568.929504,198.411789 560.056396,190.949814 
	C558.315247,189.485611 556.877930,187.660110 555.334595,185.532440 
	C555.257141,173.627884 555.145630,162.192184 555.034180,150.756470 
M612.500854,161.993759 
	C620.449768,161.993759 628.398621,161.993759 636.347534,161.993759 
	C636.327148,161.555283 636.306763,161.116821 636.286377,160.678345 
	C622.421204,160.678345 608.555969,160.678345 594.690796,160.678345 
	C594.689453,161.116760 594.688110,161.555176 594.686768,161.993591 
	C600.291748,161.993591 605.896790,161.993591 612.500854,161.993759 
M636.346863,180.625671 
	C635.736511,180.423691 635.126709,180.047363 634.515747,180.045456 
	C622.066162,180.006378 609.616516,179.999054 597.166931,180.029556 
	C596.314270,180.031631 595.462402,180.380875 594.610229,180.568665 
	C594.617920,181.044479 594.625671,181.520309 594.633423,181.996140 
	C596.791992,181.996140 598.950989,182.024628 601.109070,181.991394 
	C612.848206,181.810593 624.587158,181.614563 636.346863,180.625671 
M610.036865,195.005692 
	C609.213135,195.208878 608.389404,195.412048 607.565674,195.615219 
	C607.612000,195.887146 607.658325,196.159073 607.704651,196.431000 
	C617.236633,196.431000 626.768616,196.431000 636.300598,196.431000 
	C636.308289,195.954636 636.315918,195.478287 636.323547,195.001923 
	C627.858032,195.001923 619.392456,195.001923 610.036865,195.005692 
M610.921997,175.001205 
	C609.803345,175.196732 608.684692,175.392242 607.566040,175.587769 
	C607.613403,175.887009 607.660767,176.186264 607.708191,176.485504 
	C617.239563,176.485504 626.770874,176.485504 636.302246,176.485504 
	C636.311951,175.990540 636.321655,175.495590 636.331299,175.000626 
	C628.162231,175.000626 619.993103,175.000626 610.921997,175.001205 
M627.434387,154.993134 
	C620.835266,154.993134 614.236084,154.993134 607.636963,154.993134 
	C607.664673,155.420975 607.692322,155.848831 607.720032,156.276672 
	C617.243347,156.276672 626.766724,156.276672 636.290039,156.276672 
	C636.282898,155.848816 636.275757,155.420959 636.268616,154.993103 
	C633.648621,154.993103 631.028564,154.993103 627.434387,154.993134 
M574.903870,170.999756 
	C573.615906,171.062912 572.327881,171.126053 571.039917,171.189209 
	C571.044922,171.371597 571.049927,171.553970 571.054993,171.736359 
	C584.695618,171.736359 598.336304,171.736359 611.976990,171.736359 
	C611.979370,171.490799 611.981689,171.245224 611.984070,170.999664 
	C599.925537,170.999664 587.867004,170.999664 574.903870,170.999756 
M606.280090,192.008743 
	C608.157410,192.008743 610.034790,192.008743 611.912109,192.008743 
	C611.907532,191.769745 611.902893,191.530746 611.898254,191.291748 
	C598.303833,191.291748 584.709412,191.291748 571.114990,191.291748 
	C571.114136,191.530762 571.113281,191.769760 571.112427,192.008774 
	C582.520447,192.008774 593.928528,192.008774 606.280090,192.008743 
M573.195312,150.994843 
	C572.496765,151.102509 571.798279,151.210175 571.099792,151.317856 
	C571.115601,151.438202 571.131470,151.558548 571.147339,151.678894 
	C584.699463,151.678894 598.251587,151.678894 611.803711,151.678894 
	C611.803650,151.450562 611.803589,151.222229 611.803528,150.993896 
	C599.217346,150.993896 586.631165,150.993896 573.195312,150.994843 
M587.839172,180.022705 
	C582.107849,180.022705 576.376465,180.022705 570.645142,180.022705 
	C570.656799,180.632690 570.668457,181.242676 570.680115,181.852661 
	C576.662659,181.852661 582.645203,181.854172 588.626892,181.781769 
	C588.644897,181.781555 588.649841,180.705154 587.839172,180.022705 
M584.265503,161.993500 
	C585.994019,161.824997 587.722534,161.656509 589.451050,161.488022 
	C589.393738,161.188538 589.336426,160.889053 589.279114,160.589569 
	C583.075684,160.589569 576.872314,160.589569 570.668884,160.589569 
	C570.665833,161.057526 570.662720,161.525467 570.659668,161.993423 
	C574.884583,161.993423 579.109436,161.993423 584.265503,161.993500 
M590.354553,155.131332 
	C590.129456,155.505676 589.904358,155.880035 589.679260,156.254395 
	C594.566101,156.521683 599.452881,156.788971 604.339722,157.056259 
	C604.330933,156.376541 604.322083,155.696823 604.313293,155.017105 
	C599.936646,155.017105 595.559937,155.017105 590.354553,155.131332 
M577.538574,154.993134 
	C575.227051,155.105957 572.915527,155.218765 570.604004,155.331589 
	C570.645508,155.652222 570.687073,155.972855 570.728577,156.293488 
	C575.600342,156.293488 580.472168,156.293488 585.343933,156.293488 
	C585.332825,155.860031 585.321716,155.426575 585.310608,154.993118 
	C583.027161,154.993118 580.743652,154.993118 577.538574,154.993134 
M582.097473,196.998138 
	C583.207886,196.805984 584.318359,196.613846 585.428772,196.421707 
	C585.379456,196.152969 585.330078,195.884247 585.280762,195.615509 
	C580.412964,195.615509 575.545227,195.615509 570.677429,195.615509 
	C570.679260,196.076569 570.681091,196.537643 570.682922,196.998703 
	C574.190918,196.998703 577.698975,196.998703 582.097473,196.998138 
M576.613525,176.998459 
	C579.530945,176.998459 582.448364,176.998459 585.365784,176.998459 
	C585.337952,176.508133 585.310059,176.017792 585.282227,175.527466 
	C580.416260,175.527466 575.550293,175.527466 570.684387,175.527466 
	C570.664246,175.933578 570.644165,176.339676 570.624023,176.745789 
	C572.316650,176.829987 574.009338,176.914185 576.613525,176.998459 
M593.783813,195.001389 
	C592.366333,195.159546 590.948853,195.317703 589.531372,195.475861 
	C589.594788,195.791321 589.658264,196.106781 589.721680,196.422241 
	C594.589844,196.422241 599.458008,196.422241 604.326172,196.422241 
	C604.330139,195.948563 604.334106,195.474899 604.338074,195.001221 
	C601.126099,195.001221 597.914062,195.001221 593.783813,195.001389 
M599.295776,175.000610 
	C596.075623,175.000610 592.855530,175.000610 589.635376,175.000610 
	C589.664795,175.475479 589.694153,175.950333 589.723572,176.425201 
	C594.592163,176.425201 599.460754,176.425201 604.329407,176.425201 
	C604.337036,176.061523 604.344666,175.697845 604.352295,175.334183 
	C602.970581,175.223007 601.588806,175.111832 599.295776,175.000610 
M610.793579,164.987793 
	C603.874512,164.987793 596.955444,164.987793 590.036377,164.987793 
	C590.039612,165.230957 590.042847,165.474121 590.046143,165.717285 
	C597.688416,165.717285 605.330688,165.717285 614.400818,165.717285 
	C612.526611,165.233078 612.060791,165.112732 610.793579,164.987793 
M604.428101,185.999390 
	C607.234924,185.999390 610.041809,185.999390 612.848633,185.999390 
	C612.840027,185.769394 612.831421,185.539383 612.822754,185.309387 
	C605.273804,185.309387 597.724854,185.309387 590.175842,185.309387 
	C590.174866,185.539383 590.173889,185.769394 590.172913,185.999390 
	C594.600220,185.999390 599.027588,185.999390 604.428101,185.999390 
z"/>
<path fill="#3374B4" opacity="1.000000" stroke="none" 
	d="
M602.899353,200.992584 
	C603.623779,200.745529 604.348145,200.498474 605.580200,200.466095 
	C610.392578,204.608582 614.632629,208.611923 619.053955,212.403931 
	C619.998901,213.214325 621.601562,213.257782 622.914490,214.037552 
	C623.599609,215.475357 624.091980,216.720840 624.974548,217.552048 
	C628.835327,221.188339 632.827332,224.684631 636.738647,228.267929 
	C649.085083,239.579025 661.395691,250.929489 673.793030,262.184418 
	C674.802673,263.101074 676.365662,263.408264 677.671509,263.998657 
	C676.083862,264.647308 674.497253,265.859528 672.908325,265.862671 
	C625.925659,265.954987 578.942627,265.927216 531.529297,265.529877 
	C534.390015,261.934387 537.536621,258.561432 540.998718,255.551285 
	C552.233948,245.782761 563.688843,236.264847 574.839111,226.401672 
	C579.206482,222.538452 582.990479,218.015778 587.040161,213.793442 
	C589.312988,212.481491 591.727051,211.360092 593.822083,209.808167 
	C596.304749,207.969086 598.512512,205.758911 601.209351,203.253296 
	C602.019226,202.195526 602.459290,201.594040 602.899353,200.992584 
z"/>
<path fill="#020202" opacity="1.000000" stroke="none" 
	d="
M311.778687,538.926697 
	C296.917572,539.258728 282.458771,539.939270 268.026154,539.576721 
	C260.861084,539.396851 257.916504,535.181580 257.998108,528.444397 
	C258.074280,522.156250 261.129364,519.148193 268.430267,518.172546 
	C279.763611,516.658081 279.897705,516.657654 279.860657,505.181610 
	C279.801544,486.874298 279.456085,468.567749 279.439087,450.260651 
	C279.435425,446.305542 278.542419,444.252106 274.134583,444.986267 
	C272.360657,445.281738 270.471100,445.093323 268.657410,444.903290 
	C260.481598,444.046783 257.636627,441.107849 257.681702,433.712280 
	C257.727203,426.248505 261.035553,422.886261 268.964783,421.992310 
	C274.741730,421.341003 280.524689,420.666138 286.257294,419.714691 
	C297.881622,417.785339 302.601227,422.135590 302.511108,433.907837 
	C302.301056,461.350647 302.444122,488.796173 302.444122,516.872681 
	C305.283508,516.872681 307.364441,516.870972 309.445343,516.873047 
	C318.431458,516.881836 322.428680,519.344727 323.053101,525.255859 
	C323.932434,533.580139 321.637085,536.451904 311.778687,538.926697 
z"/>
<path fill="#4D8FCB" opacity="1.000000" stroke="none" 
	d="
M586.922852,213.487518 
	C582.990479,218.015778 579.206482,222.538452 574.839111,226.401672 
	C563.688843,236.264847 552.233948,245.782761 540.998718,255.551285 
	C537.536621,258.561432 534.390015,261.934387 531.065979,265.473450 
	C530.323792,264.677917 528.997742,263.551636 528.994995,262.422180 
	C528.917908,230.845566 528.974854,199.268600 529.507935,167.283203 
	C533.739929,169.795547 537.433655,172.769455 541.217590,175.623734 
	C545.872559,179.135040 550.602783,182.546585 555.300476,186.001251 
	C556.877930,187.660110 558.315247,189.485611 560.056396,190.949814 
	C568.929504,198.411789 577.881287,205.780334 586.922852,213.487518 
z"/>
<path fill="#4D8FCB" opacity="1.000000" stroke="none" 
	d="
M677.812012,263.623352 
	C676.365662,263.408264 674.802673,263.101074 673.793030,262.184418 
	C661.395691,250.929489 649.085083,239.579025 636.738647,228.267929 
	C632.827332,224.684631 628.835327,221.188339 624.974548,217.552048 
	C624.091980,216.720840 623.599609,215.475357 622.985291,213.730865 
	C627.773926,208.730881 632.505005,204.420578 637.236145,200.110291 
	C641.852905,195.928925 646.469604,191.747559 651.561157,187.244141 
	C653.512207,185.952484 655.073547,185.089981 656.450195,183.995255 
	C663.149292,178.667816 669.798950,173.278229 676.813843,167.937592 
	C677.393372,167.983566 677.625061,168.002640 677.856812,168.021698 
	C677.888733,199.763809 677.920593,231.505905 677.812012,263.623352 
z"/>
<path fill="#050505" opacity="1.000000" stroke="none" 
	d="
M302.827026,376.386902 
	C305.743713,383.589752 305.540222,390.147186 300.399689,395.812927 
	C295.395081,401.328766 288.766357,402.843048 281.742981,401.496277 
	C274.336578,400.076050 269.460052,393.799255 268.977783,386.212189 
	C268.397369,377.080109 272.389801,370.118469 279.772858,367.388794 
	C287.592865,364.497589 295.780060,366.582916 300.489838,372.706757 
	C301.298096,373.757660 301.961182,374.920135 302.827026,376.386902 
z"/>
<path fill="#040404" opacity="1.000000" stroke="none" 
	d="
M631.375610,379.869812 
	C633.122681,387.256927 632.840210,394.023102 626.788574,398.878815 
	C621.197083,403.365295 614.591187,404.841675 607.589478,402.533234 
	C600.080078,400.057404 595.526855,391.760681 596.774597,383.308105 
	C598.089661,374.399628 604.202698,368.424805 612.451599,367.985626 
	C621.970459,367.478821 626.924011,370.520477 631.375610,379.869812 
z"/>
<path fill="#134A82" opacity="1.000000" stroke="none" 
	d="
M676.466125,167.910645 
	C669.798950,173.278229 663.149292,178.667816 656.450195,183.995255 
	C655.073547,185.089981 653.512207,185.952484 651.699097,186.909012 
	C651.326172,174.980087 651.290283,163.064194 651.169922,150.704559 
	C655.729797,152.708984 660.418518,155.077316 665.004822,157.629684 
	C668.929810,159.813995 672.737305,162.209244 676.830200,165.110199 
	C676.864502,166.443024 676.665344,167.176834 676.466125,167.910645 
z"/>
<path fill="#134A82" opacity="1.000000" stroke="none" 
	d="
M555.334595,185.532425 
	C550.602783,182.546585 545.872559,179.135040 541.217590,175.623734 
	C537.433655,172.769455 533.739929,169.795547 529.668823,166.824158 
	C530.157166,165.746964 530.778259,164.368744 531.841431,163.750076 
	C539.293457,159.413620 546.836731,155.234009 554.692505,150.880341 
	C555.145630,162.192184 555.257141,173.627884 555.334595,185.532425 
z"/>
<path fill="#0D0D0D" opacity="1.000000" stroke="none" 
	d="
M442.920410,140.799606 
	C443.482269,141.911758 444.124542,143.219696 443.717407,143.894775 
	C443.333069,144.532074 441.777618,144.872284 440.854309,144.703476 
	C437.150299,144.026245 433.491730,143.100510 429.816345,142.266663 
	C429.525269,142.707245 429.234192,143.147827 428.943115,143.588409 
	C431.769989,145.810242 434.712585,147.904388 437.370392,150.312775 
	C438.536957,151.369904 439.122955,153.067703 439.972534,154.474594 
	C438.466614,155.049789 436.984161,156.032700 435.450195,156.121124 
	C431.399994,156.354584 427.327454,156.200180 421.961121,156.200180 
	C426.610413,158.679367 430.309052,160.394775 433.692474,162.594925 
	C434.879486,163.366806 435.292206,165.329346 436.058502,166.748215 
	C435.574005,167.091888 435.089508,167.435562 434.605011,167.779236 
	C427.821960,164.105011 421.038910,160.430771 414.193542,156.722778 
	C414.249939,152.723373 415.820709,151.096481 419.997894,151.587936 
	C423.884735,152.045242 427.867676,151.685577 432.858307,151.685577 
	C429.166595,148.787506 426.260376,146.197556 423.047913,144.070068 
	C419.769653,141.899017 418.789520,139.665359 421.778442,136.277908 
	C428.610901,137.739243 435.576691,139.229095 442.920410,140.799606 
M429.041687,142.566223 
	C428.534821,142.478180 428.027985,142.390121 427.521118,142.302048 
	C427.870911,142.584549 428.220703,142.867035 429.041687,142.566223 
z"/>
<path fill="#101010" opacity="1.000000" stroke="none" 
	d="
M410.810303,243.049622 
	C414.407715,239.814285 417.714722,236.818100 422.107147,232.838516 
	C416.178864,233.505524 411.563110,234.024872 406.423126,234.603180 
	C406.229187,233.296814 406.032623,231.972763 405.793610,230.362747 
	C413.750854,229.345840 421.286865,228.382767 429.710358,227.306274 
	C429.256317,236.376984 419.963684,237.781860 416.517090,244.694382 
	C420.496246,244.194641 424.084900,243.752792 427.670959,243.291000 
	C431.051361,242.855698 431.050171,242.846466 431.726746,247.234879 
	C424.055786,248.248398 416.393311,249.260803 408.730835,250.273209 
	C408.286133,249.945068 407.841461,249.616913 407.396759,249.288773 
	C408.437805,247.288773 409.478851,245.288773 410.810303,243.049622 
z"/>
<path fill="#0D0D0D" opacity="1.000000" stroke="none" 
	d="
M677.634888,32.562546 
	C683.153198,40.537880 677.207825,50.987671 670.073364,52.150848 
	C664.195557,53.109146 658.280457,50.172802 656.181946,44.985104 
	C654.032043,39.670269 656.120667,32.848415 660.913086,29.532269 
	C665.939148,26.054436 672.144226,27.081373 677.634888,32.562546 
M659.984802,39.723289 
	C660.393433,45.444469 663.345093,48.488239 668.063232,48.053707 
	C672.640442,47.632153 675.936951,42.861500 675.085999,37.890507 
	C674.393188,33.843529 670.106628,30.519390 666.375427,32.200699 
	C663.786621,33.367214 662.132019,36.606853 659.984802,39.723289 
z"/>
<path fill="#0F0F0F" opacity="1.000000" stroke="none" 
	d="
M412.383026,195.019836 
	C424.715057,191.533569 430.446564,198.269562 428.691589,214.037613 
	C427.770752,214.037613 426.805420,214.084503 425.845856,214.030090 
	C419.072601,213.646027 412.300476,213.241165 405.189301,212.823029 
	C405.385803,205.896317 405.014587,199.154953 412.383026,195.019836 
M423.892548,201.882431 
	C421.099915,198.422180 417.414093,197.796570 413.674652,199.544312 
	C410.113342,201.208817 409.398712,204.615112 409.999878,208.798187 
	C414.971100,208.798187 419.834930,208.798187 425.280396,208.798187 
	C424.933350,206.709534 424.594940,204.672791 423.892548,201.882431 
z"/>
<path fill="#0D0D0D" opacity="1.000000" stroke="none" 
	d="
M736.179443,76.594276 
	C735.774902,78.043350 735.068420,79.603096 735.567261,80.299507 
	C737.099854,82.439201 739.094055,84.248337 741.129150,86.421173 
	C743.677856,84.055565 745.938477,81.957405 748.555542,79.528404 
	C749.550415,80.586403 750.416565,81.507439 750.970947,82.097000 
	C745.328125,87.936790 739.931213,93.522041 734.184631,99.469238 
	C733.351135,98.433502 732.552246,97.440712 731.020325,95.537056 
	C733.605042,93.723022 736.179932,91.915886 739.204651,89.793015 
	C735.771729,86.803886 733.291077,84.643906 730.482178,82.198090 
	C728.862854,84.267075 727.041321,86.594330 725.009705,89.190048 
	C723.013062,87.541115 721.952087,86.664879 720.892517,85.789810 
	C726.476685,80.153816 731.854492,74.726173 737.534607,68.993385 
	C738.501221,69.850861 739.509644,70.745369 741.541687,72.547844 
	C739.611816,73.967903 738.020325,75.138992 736.179443,76.594276 
z"/>
<path fill="#0F0F0F" opacity="1.000000" stroke="none" 
	d="
M790.904663,269.066284 
	C792.018372,269.512512 793.194763,269.686066 793.434082,270.254211 
	C795.236755,274.534546 788.299438,283.960999 783.720642,283.594391 
	C779.661743,283.269440 777.591248,280.860321 776.577393,274.948700 
	C773.232788,276.220032 769.949707,277.467957 766.465759,278.792267 
	C766.462280,271.284668 773.706970,273.062500 777.341125,269.543152 
	C774.809937,268.604919 772.503906,267.750153 769.933228,266.797272 
	C770.453552,265.352936 770.875183,264.182373 771.413269,262.688629 
	C777.983643,264.849335 784.258484,266.912842 790.904663,269.066284 
M783.948792,271.582733 
	C780.434937,270.031860 780.681213,273.135254 780.826233,274.648499 
	C780.965759,276.105316 782.425110,277.435699 783.304565,278.821594 
	C785.242371,277.389893 787.180237,275.958191 790.050720,273.837372 
	C787.159058,272.764954 785.941223,272.313293 783.948792,271.582733 
z"/>
<path fill="#111111" opacity="1.000000" stroke="none" 
	d="
M775.530029,244.274918 
	C775.163391,235.075684 779.438782,231.240311 787.975708,232.581650 
	C792.069824,233.224945 796.177429,233.782486 800.755737,234.448196 
	C800.598328,235.960342 800.456848,237.319550 800.285706,238.964066 
	C795.642883,238.278946 791.401672,237.568329 787.137024,237.051346 
	C783.894226,236.658234 780.476196,236.459534 779.806335,240.875244 
	C779.131592,245.323471 782.006958,246.600967 785.735229,247.110596 
	C789.998047,247.693314 794.233887,248.473816 798.758118,249.213608 
	C798.452271,250.722855 798.200745,251.963699 797.877991,253.556305 
	C792.968567,252.801895 788.221069,252.106750 783.486267,251.334167 
	C779.549072,250.691742 776.742432,248.652786 775.530029,244.274918 
z"/>
<path fill="#0E0E0E" opacity="1.000000" stroke="none" 
	d="
M530.342896,30.056595 
	C533.924133,29.107872 537.493713,27.025537 539.099609,32.491234 
	C536.705383,33.025845 534.244080,33.218063 532.092407,34.135998 
	C528.471619,35.680668 526.943481,38.704594 527.677307,42.635311 
	C528.424133,46.636066 530.760132,49.285553 534.896057,49.762470 
	C539.477356,50.290745 541.573730,47.483925 539.954529,43.318283 
	C539.482483,42.103851 539.045532,40.875782 538.592163,39.653198 
	C540.661011,37.756332 542.422668,37.036358 543.242981,40.473682 
	C544.066040,43.922073 548.439209,47.173603 543.551208,50.961597 
	C538.951843,54.525944 532.767029,55.083027 528.282837,51.915817 
	C521.308044,46.989449 520.124451,34.826942 530.342896,30.056595 
z"/>
<path fill="#101010" opacity="1.000000" stroke="none" 
	d="
M794.788574,167.279724 
	C795.852417,168.378937 796.525024,169.551392 797.545593,171.330475 
	C792.508057,172.342590 788.186584,173.172440 783.883240,174.087952 
	C780.595947,174.787323 777.519348,176.032867 778.235107,180.181549 
	C778.924500,184.178024 781.940002,184.831421 785.451477,184.146271 
	C788.701416,183.512161 791.981445,182.995178 795.188477,182.189011 
	C797.993408,181.483902 799.739441,181.942520 799.713440,185.979599 
	C794.655823,186.959000 789.410889,188.277130 784.084473,188.919449 
	C778.948425,189.538818 775.020813,186.248474 774.061707,181.309601 
	C773.038513,176.040771 775.560547,171.584442 780.784058,170.193817 
	C785.256897,169.003052 789.854797,168.281830 794.788574,167.279724 
z"/>
<path fill="#101010" opacity="1.000000" stroke="none" 
	d="
M416.563660,267.685547 
	C417.347595,270.055054 417.970154,272.081635 418.684692,274.407593 
	C420.584717,273.885345 422.130554,273.460449 424.020874,272.940857 
	C423.232239,270.082214 422.503540,267.440857 421.781433,264.823303 
	C425.012299,263.372253 425.012299,263.372253 428.089325,271.634674 
	C429.801361,271.086853 431.549713,270.527435 433.509552,269.900330 
	C433.005768,268.204498 432.580353,266.804382 432.174835,265.398499 
	C431.763214,263.971497 431.371277,262.538788 430.985077,261.159912 
	C434.831390,258.157318 434.375641,257.832336 438.793121,273.062561 
	C431.441498,275.388336 424.069061,277.720734 416.224335,280.202545 
	C414.776886,275.717041 413.370270,271.358032 411.408356,265.278107 
	C413.806976,266.269714 415.104614,266.806152 416.563660,267.685547 
z"/>
<path fill="#0F0F0F" opacity="1.000000" stroke="none" 
	d="
M431.046021,116.783272 
	C432.750793,113.915337 434.430481,111.435219 435.828888,108.805511 
	C437.395233,105.860016 438.873383,106.580696 440.670471,108.673660 
	C439.155701,111.272156 437.655670,113.845421 435.977905,116.723564 
	C437.496674,117.672028 438.983459,118.600533 440.693024,119.668152 
	C442.298981,117.114082 443.784821,114.751114 445.589539,111.880943 
	C450.998962,116.198769 443.876770,118.486313 444.798065,122.098495 
	C445.855164,122.723793 447.395050,123.634682 449.231628,124.721046 
	C450.940643,121.996788 452.500366,119.510483 454.280670,116.672592 
	C455.423706,117.266556 456.495453,117.823463 457.881226,118.543549 
	C455.362366,122.706909 452.977081,126.649460 450.433228,130.854141 
	C443.933655,126.946526 437.672089,123.226578 431.490112,119.378754 
	C431.007538,119.078384 431.081482,117.883965 431.046021,116.783272 
z"/>
<path fill="#0F0F0F" opacity="1.000000" stroke="none" 
	d="
M568.906799,33.181480 
	C566.202515,34.018959 563.801208,34.616570 561.028564,35.306606 
	C561.466309,37.249641 561.881470,39.092632 562.324829,41.060390 
	C565.492493,40.378834 568.393066,39.754749 571.703674,39.042435 
	C572.047913,40.232250 572.380615,41.382370 572.826477,42.923271 
	C568.019043,44.025505 563.557495,45.048447 558.723572,46.156776 
	C556.966125,38.267269 555.289307,30.739359 553.546753,22.916573 
	C557.717407,21.918209 561.368958,20.813681 565.101868,20.297667 
	C566.156311,20.151903 567.448792,21.727823 569.729675,23.243370 
	C565.006042,24.440899 562.159546,25.162548 558.955688,25.974791 
	C559.335632,27.714676 559.672791,29.258780 560.115356,31.285805 
	C562.328491,30.838104 564.377075,30.478260 566.398010,30.001413 
	C569.076660,29.369375 569.588562,30.704126 568.906799,33.181480 
z"/>
<path fill="#0D0D0D" opacity="1.000000" stroke="none" 
	d="
M499.531647,66.470200 
	C498.401276,61.044529 497.244934,56.036613 496.499359,50.968269 
	C496.320801,49.754562 497.184448,47.935295 498.170319,47.142998 
	C498.985962,46.487453 501.082611,46.378891 501.934662,46.982952 
	C508.115967,51.365089 514.125427,55.989620 520.282410,60.607311 
	C516.539185,65.644005 514.280945,60.815975 511.332489,59.694061 
	C507.845459,62.125305 501.770599,62.712837 504.550995,69.800949 
	C504.824951,70.499413 502.825867,72.089508 501.188141,74.130028 
	C500.518921,70.956520 500.087585,68.911163 499.531647,66.470200 
M503.198303,59.877636 
	C504.779297,58.922138 506.360260,57.966637 508.244598,56.827782 
	C505.639618,54.869881 503.595612,53.333588 500.607452,51.087704 
	C501.393402,54.693840 501.933716,57.172939 503.198303,59.877636 
z"/>
<path fill="#0E0E0E" opacity="1.000000" stroke="none" 
	d="
M748.104309,106.128922 
	C753.006470,102.740318 757.609375,99.543945 762.418701,96.204247 
	C765.203186,100.196793 767.749084,103.847244 770.490479,107.778030 
	C769.419312,108.633095 768.481628,109.381630 767.356262,110.279961 
	C765.408020,107.610733 763.663269,105.220299 761.695496,102.524261 
	C760.167358,103.467941 758.697998,104.375320 756.957214,105.450340 
	C758.609314,107.883926 760.175110,110.190369 761.744019,112.501434 
	C759.439575,114.732071 759.439575,114.732071 753.467163,107.968269 
	C752.022400,109.001045 750.563232,110.044067 748.911804,111.224541 
	C750.744202,113.964592 752.459045,116.528915 754.159302,119.071480 
	C750.305054,121.984360 750.305054,121.984360 743.128235,109.734367 
	C744.666748,108.611572 746.235962,107.466354 748.104309,106.128922 
z"/>
<path fill="#0D0D0D" opacity="1.000000" stroke="none" 
	d="
M761.800659,297.522247 
	C760.605957,299.751648 759.585205,301.632568 758.481995,303.665558 
	C757.297607,303.128510 756.277466,302.665894 754.804932,301.998169 
	C757.014343,297.760071 759.122375,293.716400 761.450378,289.250854 
	C768.540466,292.925629 775.387756,296.474579 782.607483,300.216522 
	C780.338562,304.602570 778.250427,308.639252 776.165222,312.670227 
	C773.253235,311.212311 773.253235,311.212311 776.489807,302.223022 
	C775.091919,301.463898 773.678223,300.696228 772.235352,299.912720 
	C770.393311,302.532837 768.778503,304.910614 766.995850,307.155060 
	C766.893860,307.283478 765.420654,306.322754 764.433228,305.786133 
	C765.713318,303.207581 766.882080,300.853210 768.229858,298.138245 
	C766.084290,297.543457 764.819397,293.686493 761.800659,297.522247 
z"/>
<path fill="#111111" opacity="1.000000" stroke="none" 
	d="
M596.464966,39.457630 
	C593.292480,40.163769 590.423218,40.970383 587.547180,40.995659 
	C584.518555,41.022278 583.163940,39.211311 584.096130,36.406277 
	C586.681458,36.655785 589.092285,37.144604 591.462646,36.994331 
	C592.445618,36.932014 593.948853,35.603695 594.104187,34.666817 
	C594.254883,33.758255 593.219421,32.217724 592.283447,31.652691 
	C590.178650,30.382095 587.147949,30.093073 585.733337,28.380770 
	C584.204529,26.530098 582.918396,23.129826 583.591431,21.085186 
	C585.073914,16.581362 589.471191,16.086494 593.578918,16.945299 
	C595.080872,17.259308 596.274292,19.048811 597.608459,20.165197 
	C597.336914,20.554886 597.065430,20.944572 596.793884,21.334261 
	C594.741028,21.138466 592.664307,20.675142 590.645203,20.855848 
	C589.580566,20.951130 587.996887,22.027925 587.791199,22.924025 
	C587.606445,23.728983 588.781189,25.201630 589.723389,25.824680 
	C591.074036,26.717930 592.797546,27.023191 594.293213,27.725716 
	C599.806946,30.315628 600.605713,34.115528 596.464966,39.457630 
z"/>
<path fill="#0D0D0D" opacity="1.000000" stroke="none" 
	d="
M425.546387,294.293915 
	C426.676788,295.880341 427.262421,297.785217 428.339752,299.352051 
	C429.091980,300.446045 430.517334,301.077209 431.642059,301.915070 
	C432.367310,300.748657 433.491089,299.656372 433.725189,298.398529 
	C434.083954,296.470673 433.663330,294.411438 433.868286,292.438599 
	C434.419739,287.130707 439.676575,284.660919 444.159729,287.514343 
	C449.111053,290.665771 449.984283,297.803772 445.472260,300.177917 
	C444.985809,297.985687 444.856720,295.671753 443.909790,293.763702 
	C443.308105,292.551392 441.491150,291.942200 440.219177,291.062561 
	C439.470459,292.362671 438.394867,293.584564 438.059937,294.983734 
	C437.683502,296.556152 438.524750,298.566620 437.854950,299.889740 
	C436.698364,302.174286 435.015350,305.467438 433.128082,305.781372 
	C430.815033,306.166077 427.417023,304.524902 425.678833,302.653564 
	C423.793488,300.623840 421.830750,297.372498 425.546387,294.293915 
z"/>
<path fill="#111111" opacity="1.000000" stroke="none" 
	d="
M452.772614,85.711716 
	C455.123413,83.745033 457.085083,83.131783 458.693451,86.011436 
	C458.537567,86.315643 458.432129,86.594254 458.267365,86.831665 
	C456.717133,89.065140 453.350220,92.372849 453.921448,93.327232 
	C456.053101,96.888718 458.613434,92.796364 461.119659,92.627449 
	C463.889252,92.440781 467.228394,91.868538 469.308868,93.130394 
	C470.929382,94.113251 472.283203,98.271889 471.484344,99.914902 
	C470.006653,102.954109 466.988068,105.328430 464.300720,107.614609 
	C463.837067,108.009018 461.838593,106.599281 460.395874,105.954445 
	C462.686890,104.148262 464.909424,102.799477 466.530823,100.929466 
	C467.229889,100.123184 467.104401,98.022385 466.541229,96.927452 
	C466.224335,96.311371 464.243896,96.389236 463.029205,96.455200 
	C462.257690,96.497101 461.505707,97.070404 460.762939,97.441383 
	C457.013580,99.313980 453.098480,100.875961 450.123169,96.514404 
	C447.325958,92.413918 449.336731,88.957718 452.772614,85.711716 
z"/>
<path fill="#0E0E0E" opacity="1.000000" stroke="none" 
	d="
M468.990875,72.792686 
	C470.764343,69.633011 472.267395,66.568222 474.538818,64.259354 
	C475.429688,63.353821 478.041809,64.141655 479.869995,64.158287 
	C479.867676,64.650894 479.865387,65.143501 479.863068,65.636101 
	C478.188477,66.676659 476.278778,67.483498 474.926056,68.844063 
	C474.094574,69.680351 474.114746,71.363365 473.752472,72.666168 
	C474.930847,72.976395 476.155609,73.655907 477.277374,73.515099 
	C479.229675,73.270042 481.198517,71.898865 483.014069,72.133263 
	C485.404236,72.441856 488.727234,73.240524 489.682709,74.936401 
	C490.802887,76.924576 490.659760,80.536850 489.565308,82.678505 
	C486.946564,87.803001 481.765198,88.714867 479.024933,85.153847 
	C480.901917,84.185219 483.043030,83.516724 484.550018,82.149338 
	C485.556458,81.236137 485.660461,79.328407 486.168335,77.865768 
	C484.738556,77.483360 483.320953,76.870232 481.875000,76.793732 
	C480.777252,76.735657 479.649750,77.385139 478.524445,77.677269 
	C474.117249,78.821350 470.561066,78.139740 468.990875,72.792686 
z"/>
<path fill="#194E85" opacity="1.000000" stroke="none" 
	d="
M621.304443,131.999237 
	C610.803955,132.232101 600.041748,132.272476 588.861694,132.153503 
	C593.295837,129.131302 598.079712,126.140503 603.049683,123.499931 
	C604.219666,122.878319 606.311035,122.905411 607.474182,123.547585 
	C612.105286,126.104477 616.537048,129.022461 621.304443,131.999237 
z"/>
<path fill="#111111" opacity="1.000000" stroke="none" 
	d="
M764.635376,148.039032 
	C771.588440,144.666763 778.665100,141.627991 786.327942,138.337555 
	C788.135010,142.986847 789.761292,147.171143 791.374329,151.321182 
	C787.994141,153.156067 787.994141,153.156067 784.075745,144.679489 
	C782.321655,145.258621 780.510193,145.856674 778.222473,146.611969 
	C779.200012,149.511581 780.114624,152.224548 781.029236,154.937531 
	C780.725098,155.357849 780.420898,155.778152 780.116760,156.198471 
	C778.929504,155.451584 777.369873,154.959641 776.642944,153.897644 
	C775.570251,152.330673 775.090271,150.358017 774.726685,149.464554 
	C771.029053,146.908661 767.661926,154.812393 764.635376,148.039032 
z"/>
<path fill="#191919" opacity="1.000000" stroke="none" 
	d="
M788.045898,208.196411 
	C791.321594,208.184219 794.113831,208.184219 796.378784,208.184219 
	C798.596924,205.721664 794.356689,200.254333 801.886536,201.123322 
	C801.886536,206.523392 802.027161,211.932175 801.766846,217.321594 
	C801.715271,218.389771 800.124268,219.383575 799.243164,220.411682 
	C798.830811,220.146515 798.418457,219.881363 798.006104,219.616196 
	C797.769836,217.533325 797.533569,215.450455 797.266174,213.092545 
	C790.971619,213.092545 784.721680,213.092545 778.111877,213.092545 
	C778.111877,211.627472 778.111877,210.281799 778.111877,208.208588 
	C781.333923,208.208588 784.448242,208.208588 788.045898,208.196411 
z"/>
<path fill="#101010" opacity="1.000000" stroke="none" 
	d="
M647.193359,23.486858 
	C645.022278,24.310221 642.907410,24.781874 639.807922,25.473101 
	C639.030029,29.542454 638.034607,34.651737 637.081482,39.768898 
	C636.392212,43.469826 636.417236,43.474487 632.034485,42.756889 
	C633.104797,36.457588 634.176208,30.151251 635.193909,24.161459 
	C633.247559,21.795982 627.004150,24.733980 629.319031,18.225004 
	C634.794006,19.166922 640.309448,20.060019 645.788330,21.138468 
	C646.383362,21.255589 646.767578,22.443764 647.193359,23.486858 
z"/>
<path fill="#0E0E0E" opacity="1.000000" stroke="none" 
	d="
M705.907166,66.893005 
	C708.701904,62.940163 711.308899,59.293060 713.977905,55.559181 
	C712.105408,54.137836 710.404907,52.847061 708.490540,51.393951 
	C709.194153,50.275478 709.843445,49.243416 710.645813,47.967945 
	C715.762512,51.613571 720.615906,55.071602 725.735779,58.719540 
	C724.962646,59.923183 724.295471,60.961800 723.572693,62.086937 
	C721.528870,60.776253 719.740906,59.629692 717.653442,58.291019 
	C713.892456,63.539722 710.244873,68.630196 706.386047,74.015465 
	C705.140076,73.172882 703.986145,72.392548 702.699646,71.522537 
	C703.826965,69.908363 704.773193,68.553558 705.907166,66.893005 
z"/>
<path fill="#659ED1" opacity="1.000000" stroke="none" 
	d="
M676.813843,167.937576 
	C676.665344,167.176834 676.864502,166.443024 677.091431,165.332214 
	C677.427185,165.746048 677.735168,166.536850 677.949951,167.674683 
	C677.625061,168.002640 677.393372,167.983566 676.813843,167.937576 
z"/>
<path fill="#CADDE8" opacity="1.000000" stroke="none" 
	d="
M636.748230,200.072113 
	C632.505005,204.420578 627.773926,208.730881 622.972046,213.347885 
	C621.601562,213.257782 619.998901,213.214325 619.053955,212.403931 
	C614.632629,208.611923 610.392578,204.608582 605.872803,200.412598 
	C615.858643,200.107605 626.059509,200.070770 636.748230,200.072113 
z"/>
<path fill="#C1D7E2" opacity="1.000000" stroke="none" 
	d="
M612.001343,161.993683 
	C605.896790,161.993591 600.291748,161.993591 594.686768,161.993591 
	C594.688110,161.555176 594.689453,161.116760 594.690796,160.678345 
	C608.555969,160.678345 622.421204,160.678345 636.286377,160.678345 
	C636.306763,161.116821 636.327148,161.555283 636.347534,161.993759 
	C628.398621,161.993759 620.449768,161.993759 612.001343,161.993683 
z"/>
<path fill="#C1D7E2" opacity="1.000000" stroke="none" 
	d="
M636.336548,181.024719 
	C624.587158,181.614563 612.848206,181.810593 601.109070,181.991394 
	C598.950989,182.024628 596.791992,181.996140 594.633423,181.996140 
	C594.625671,181.520309 594.617920,181.044479 594.610229,180.568665 
	C595.462402,180.380875 596.314270,180.031631 597.166931,180.029556 
	C609.616516,179.999054 622.066162,180.006378 634.515747,180.045456 
	C635.126709,180.047363 635.736511,180.423691 636.336548,181.024719 
z"/>
<path fill="#C1D7E2" opacity="1.000000" stroke="none" 
	d="
M610.481934,195.003815 
	C619.392456,195.001923 627.858032,195.001923 636.323547,195.001923 
	C636.315918,195.478287 636.308289,195.954636 636.300598,196.431000 
	C626.768616,196.431000 617.236633,196.431000 607.704651,196.431000 
	C607.658325,196.159073 607.612000,195.887146 607.565674,195.615219 
	C608.389404,195.412048 609.213135,195.208878 610.481934,195.003815 
z"/>
<path fill="#C1D7E2" opacity="1.000000" stroke="none" 
	d="
M611.373047,175.000916 
	C619.993103,175.000626 628.162231,175.000626 636.331299,175.000626 
	C636.321655,175.495590 636.311951,175.990540 636.302246,176.485504 
	C626.770874,176.485504 617.239563,176.485504 607.708191,176.485504 
	C607.660767,176.186264 607.613403,175.887009 607.566040,175.587769 
	C608.684692,175.392242 609.803345,175.196732 611.373047,175.000916 
z"/>
<path fill="#C1D7E2" opacity="1.000000" stroke="none" 
	d="
M627.921509,154.993118 
	C631.028564,154.993103 633.648621,154.993103 636.268616,154.993103 
	C636.275757,155.420959 636.282898,155.848816 636.290039,156.276672 
	C626.766724,156.276672 617.243347,156.276672 607.720032,156.276672 
	C607.692322,155.848831 607.664673,155.420975 607.636963,154.993134 
	C614.236084,154.993134 620.835266,154.993134 627.921509,154.993118 
z"/>
<path fill="#BAD1DE" opacity="1.000000" stroke="none" 
	d="
M575.356201,170.999710 
	C587.867004,170.999664 599.925537,170.999664 611.984070,170.999664 
	C611.981689,171.245224 611.979370,171.490799 611.976990,171.736359 
	C598.336304,171.736359 584.695618,171.736359 571.054993,171.736359 
	C571.049927,171.553970 571.044922,171.371597 571.039917,171.189209 
	C572.327881,171.126053 573.615906,171.062912 575.356201,170.999710 
z"/>
<path fill="#BAD1DE" opacity="1.000000" stroke="none" 
	d="
M605.808350,192.008759 
	C593.928528,192.008774 582.520447,192.008774 571.112427,192.008774 
	C571.113281,191.769760 571.114136,191.530762 571.114990,191.291748 
	C584.709412,191.291748 598.303833,191.291748 611.898254,191.291748 
	C611.902893,191.530746 611.907532,191.769745 611.912109,192.008743 
	C610.034790,192.008743 608.157410,192.008743 605.808350,192.008759 
z"/>
<path fill="#BAD1DE" opacity="1.000000" stroke="none" 
	d="
M573.620117,150.994370 
	C586.631165,150.993896 599.217346,150.993896 611.803528,150.993896 
	C611.803589,151.222229 611.803650,151.450562 611.803711,151.678894 
	C598.251587,151.678894 584.699463,151.678894 571.147339,151.678894 
	C571.131470,151.558548 571.115601,151.438202 571.099792,151.317856 
	C571.798279,151.210175 572.496765,151.102509 573.620117,150.994370 
z"/>
<path fill="#C1D7E2" opacity="1.000000" stroke="none" 
	d="
M588.250000,180.077057 
	C588.649841,180.705154 588.644897,181.781555 588.626892,181.781769 
	C582.645203,181.854172 576.662659,181.852661 570.680115,181.852661 
	C570.668457,181.242676 570.656799,180.632690 570.645142,180.022705 
	C576.376465,180.022705 582.107849,180.022705 588.250000,180.077057 
z"/>
<path fill="#C1D7E2" opacity="1.000000" stroke="none" 
	d="
M583.799927,161.993469 
	C579.109436,161.993423 574.884583,161.993423 570.659668,161.993423 
	C570.662720,161.525467 570.665833,161.057526 570.668884,160.589569 
	C576.872314,160.589569 583.075684,160.589569 589.279114,160.589569 
	C589.336426,160.889053 589.393738,161.188538 589.451050,161.488022 
	C587.722534,161.656509 585.994019,161.824997 583.799927,161.993469 
z"/>
<path fill="#C1D7E2" opacity="1.000000" stroke="none" 
	d="
M590.768921,155.074219 
	C595.559937,155.017105 599.936646,155.017105 604.313293,155.017105 
	C604.322083,155.696823 604.330933,156.376541 604.339722,157.056259 
	C599.452881,156.788971 594.566101,156.521683 589.679260,156.254395 
	C589.904358,155.880035 590.129456,155.505676 590.768921,155.074219 
z"/>
<path fill="#C1D7E2" opacity="1.000000" stroke="none" 
	d="
M577.999390,154.993134 
	C580.743652,154.993118 583.027161,154.993118 585.310608,154.993118 
	C585.321716,155.426575 585.332825,155.860031 585.343933,156.293488 
	C580.472168,156.293488 575.600342,156.293488 570.728577,156.293488 
	C570.687073,155.972855 570.645508,155.652222 570.604004,155.331589 
	C572.915527,155.218765 575.227051,155.105957 577.999390,154.993134 
z"/>
<path fill="#C1D7E2" opacity="1.000000" stroke="none" 
	d="
M581.652222,196.998413 
	C577.698975,196.998703 574.190918,196.998703 570.682922,196.998703 
	C570.681091,196.537643 570.679260,196.076569 570.677429,195.615509 
	C575.545227,195.615509 580.412964,195.615509 585.280762,195.615509 
	C585.330078,195.884247 585.379456,196.152969 585.428772,196.421707 
	C584.318359,196.613846 583.207886,196.805984 581.652222,196.998413 
z"/>
<path fill="#C1D7E2" opacity="1.000000" stroke="none" 
	d="
M576.157715,176.998413 
	C574.009338,176.914185 572.316650,176.829987 570.624023,176.745789 
	C570.644165,176.339676 570.664246,175.933578 570.684387,175.527466 
	C575.550293,175.527466 580.416260,175.527466 585.282227,175.527466 
	C585.310059,176.017792 585.337952,176.508133 585.365784,176.998459 
	C582.448364,176.998459 579.530945,176.998459 576.157715,176.998413 
z"/>
<path fill="#C1D7E2" opacity="1.000000" stroke="none" 
	d="
M594.242920,195.001312 
	C597.914062,195.001221 601.126099,195.001221 604.338074,195.001221 
	C604.334106,195.474899 604.330139,195.948563 604.326172,196.422241 
	C599.458008,196.422241 594.589844,196.422241 589.721680,196.422241 
	C589.658264,196.106781 589.594788,195.791321 589.531372,195.475861 
	C590.948853,195.317703 592.366333,195.159546 594.242920,195.001312 
z"/>
<path fill="#C1D7E2" opacity="1.000000" stroke="none" 
	d="
M599.751404,175.000626 
	C601.588806,175.111832 602.970581,175.223007 604.352295,175.334183 
	C604.344666,175.697845 604.337036,176.061523 604.329407,176.425201 
	C599.460754,176.425201 594.592163,176.425201 589.723572,176.425201 
	C589.694153,175.950333 589.664795,175.475479 589.635376,175.000610 
	C592.855530,175.000610 596.075623,175.000610 599.751404,175.000626 
z"/>
<path fill="#BAD1DE" opacity="1.000000" stroke="none" 
	d="
M611.194275,164.990082 
	C612.060791,165.112732 612.526611,165.233078 614.400818,165.717285 
	C605.330688,165.717285 597.688416,165.717285 590.046143,165.717285 
	C590.042847,165.474121 590.039612,165.230957 590.036377,164.987793 
	C596.955444,164.987793 603.874512,164.987793 611.194275,164.990082 
z"/>
<path fill="#BAD1DE" opacity="1.000000" stroke="none" 
	d="
M603.941528,185.999390 
	C599.027588,185.999390 594.600220,185.999390 590.172913,185.999390 
	C590.173889,185.769394 590.174866,185.539383 590.175842,185.309387 
	C597.724854,185.309387 605.273804,185.309387 612.822754,185.309387 
	C612.831421,185.539383 612.840027,185.769394 612.848633,185.999390 
	C610.041809,185.999390 607.234924,185.999390 603.941528,185.999390 
z"/>
<path fill="#CADDE8" opacity="1.000000" stroke="none" 
	d="
M602.578613,201.031342 
	C602.459290,201.594040 602.019226,202.195526 601.302368,202.930145 
	C601.436279,202.398895 601.847046,201.734512 602.578613,201.031342 
z"/>
<path fill="#FEFEFE" opacity="1.000000" stroke="none" 
	d="
M428.806091,142.857880 
	C428.220703,142.867035 427.870911,142.584549 427.521118,142.302063 
	C428.027985,142.390121 428.534821,142.478180 428.806091,142.857880 
z"/>
<path fill="#F9F9F9" opacity="1.000000" stroke="none" 
	d="
M660.022400,39.321770 
	C662.132019,36.606853 663.786621,33.367214 666.375427,32.200699 
	C670.106628,30.519390 674.393188,33.843529 675.085999,37.890507 
	C675.936951,42.861500 672.640442,47.632153 668.063232,48.053707 
	C663.345093,48.488239 660.393433,45.444469 660.022400,39.321770 
z"/>
<path fill="#F9F9F9" opacity="1.000000" stroke="none" 
	d="
M424.074524,202.259247 
	C424.594940,204.672791 424.933350,206.709534 425.280396,208.798187 
	C419.834930,208.798187 414.971100,208.798187 409.999878,208.798187 
	C409.398712,204.615112 410.113342,201.208817 413.674652,199.544312 
	C417.414093,197.796570 421.099915,198.422180 424.074524,202.259247 
z"/>
<path fill="#EBEBEB" opacity="1.000000" stroke="none" 
	d="
M784.336060,271.722168 
	C785.941223,272.313293 787.159058,272.764954 790.050720,273.837372 
	C787.180237,275.958191 785.242371,277.389893 783.304565,278.821594 
	C782.425110,277.435699 780.965759,276.105316 780.826233,274.648499 
	C780.681213,273.135254 780.434937,270.031860 784.336060,271.722168 
z"/>
<path fill="#EBEBEB" opacity="1.000000" stroke="none" 
	d="
M502.836182,59.764839 
	C501.933716,57.172939 501.393402,54.693840 500.607452,51.087704 
	C503.595612,53.333588 505.639618,54.869881 508.244598,56.827782 
	C506.360260,57.966637 504.779297,58.922138 502.836182,59.764839 
z"/>
</svg>